<svg width="48" height="15" viewBox="0 0 48 15" fill="none" xmlns="http://www.w3.org/2000/svg">
<g id="Bank Syariah Indonesia">
<g id="Bank Syariah Indonesia_2">
<path id="Vector" d="M15.9256 3.94336H15.908V3.94501C15.9139 3.94446 15.9189 3.94399 15.9256 3.94336Z" fill="#168F8C"/>
<path id="Vector_2" d="M16.0312 3.78906V13.6415H18.3359V6.25761C18.3359 5.70616 18.0432 4.04014 16.0312 3.78906Z" fill="#0CA49D"/>
<path id="Vector_3" d="M3.78066 11.9269C4.07376 11.9269 4.31334 11.8896 4.49947 11.8148C4.68539 11.74 4.83091 11.6433 4.93612 11.5246C5.04102 11.4059 5.11316 11.2718 5.1526 11.1223C5.19197 10.9729 5.21162 10.8212 5.21162 10.6673C5.21162 10.4915 5.18867 10.3332 5.14263 10.1924C5.09689 10.0517 5.018 9.93311 4.90635 9.83628C4.79492 9.73959 4.64712 9.66479 4.46333 9.61203C4.27954 9.55933 4.04758 9.53288 3.76746 9.53288H2.21854V11.9269H3.78066ZM2.21854 5.66811V8.0424H3.37378C3.61871 8.0424 3.83982 8.02486 4.03673 7.98964C4.2335 7.95441 4.40102 7.89295 4.53877 7.80488C4.67652 7.71704 4.78172 7.59618 4.85386 7.44223C4.926 7.28836 4.96221 7.09491 4.96221 6.86189C4.96221 6.63329 4.9337 6.44308 4.87688 6.29142C4.81992 6.13968 4.73238 6.01771 4.61428 5.9253C4.49618 5.83296 4.34618 5.76708 4.16474 5.72743C3.98314 5.68786 3.76746 5.66811 3.5182 5.66811H2.21854ZM3.5182 3.99951C4.17888 3.99951 4.74125 4.06119 5.20509 4.18419C5.66879 4.30741 6.04744 4.48096 6.34069 4.70521C6.63371 4.92947 6.84697 5.20214 6.98062 5.523C7.11397 5.84402 7.18076 6.20232 7.18076 6.59806C7.18076 6.81347 7.15011 7.02129 7.08905 7.2213C7.02768 7.42145 6.93128 7.60819 6.80005 7.78182C6.66875 7.95559 6.50028 8.11492 6.29465 8.2601C6.08886 8.40513 5.8418 8.53048 5.55303 8.63587C6.18299 8.78981 6.64911 9.03817 6.951 9.38122C7.2529 9.72412 7.40406 10.1683 7.40406 10.7134C7.40406 11.1223 7.32525 11.5027 7.16764 11.8544C7.01016 12.2062 6.77916 12.5129 6.47506 12.7744C6.17104 13.036 5.79576 13.2405 5.34937 13.3878C4.9032 13.5352 4.39332 13.6087 3.82017 13.6087H0V3.99951H3.5182Z" fill="#0CA49D"/>
<path id="Vector_4" d="M14.0727 5.95175C14.007 6.05735 13.9383 6.13642 13.8659 6.18919C13.7938 6.24196 13.7008 6.26834 13.587 6.26834C13.4864 6.26834 13.3781 6.23643 13.2621 6.17268C13.1462 6.10894 13.0148 6.03753 12.8684 5.95838C12.7217 5.87923 12.5543 5.80775 12.3662 5.744C12.1781 5.68025 11.9636 5.64842 11.7228 5.64842C11.3071 5.64842 10.9975 5.73744 10.7941 5.91556C10.5907 6.09353 10.4888 6.3343 10.4888 6.6377C10.4888 6.83122 10.5502 6.99165 10.6726 7.11907C10.795 7.24663 10.956 7.35659 11.1552 7.44893C11.3543 7.54119 11.5819 7.62594 11.8378 7.70281C12.0938 7.77982 12.3552 7.86552 12.6221 7.96C12.889 8.05462 13.1507 8.16561 13.4065 8.29303C13.6625 8.42059 13.8902 8.58324 14.0892 8.78111C14.2883 8.97898 14.4491 9.21966 14.5716 9.50324C14.694 9.78682 14.7554 10.1288 14.7554 10.5288C14.7554 10.973 14.6789 11.3885 14.5258 11.7752C14.3725 12.1622 14.1503 12.4997 13.8594 12.7877C13.5683 13.0757 13.2096 13.3021 12.7831 13.4669C12.3563 13.6319 11.8716 13.7143 11.3291 13.7143C11.0315 13.7143 10.7284 13.6835 10.4201 13.622C10.1115 13.5604 9.81289 13.4735 9.52412 13.3614C9.2352 13.2493 8.96388 13.1163 8.71015 12.9625C8.45612 12.8086 8.23524 12.6371 8.04712 12.4479L8.70347 11.406C8.75611 11.3312 8.82488 11.2686 8.91021 11.218C8.99554 11.1675 9.0885 11.1422 9.18938 11.1422C9.32046 11.1422 9.45272 11.1839 9.58643 11.2675C9.71986 11.3511 9.87081 11.4433 10.0393 11.5445C10.2077 11.6457 10.4014 11.738 10.6202 11.8215C10.8389 11.905 11.0972 11.9468 11.3948 11.9468C11.7973 11.9468 12.1102 11.8577 12.3334 11.6797C12.5565 11.5016 12.6681 11.2191 12.6681 10.8323C12.6681 10.6079 12.6067 10.4256 12.4844 10.2848C12.3618 10.1442 12.2009 10.0276 12.002 9.93517C11.8026 9.8429 11.5762 9.76154 11.3224 9.69124C11.0687 9.62101 10.8082 9.54289 10.5415 9.45703C10.2744 9.37133 10.0141 9.26587 9.76033 9.14059C9.50638 9.01523 9.27992 8.85038 9.0811 8.64595C8.88177 8.44145 8.72092 8.18646 8.59849 7.88085C8.47606 7.57531 8.4147 7.19829 8.4147 6.74979C8.4147 6.38935 8.48684 6.03753 8.63134 5.69448C8.77583 5.35158 8.98792 5.04604 9.26797 4.77786C9.54809 4.50976 9.8917 4.29531 10.2985 4.13473C10.7055 3.9743 11.1715 3.89404 11.6967 3.89404C11.9898 3.89404 12.2753 3.91718 12.5533 3.96339C12.831 4.00945 13.0948 4.07769 13.3442 4.16782C13.5938 4.25795 13.8266 4.36569 14.0432 4.49097C14.2599 4.61633 14.4534 4.75804 14.6241 4.91634L14.0727 5.95175Z" fill="#0CA49D"/>
<path id="Vector_5" d="M18.5887 0.238034C18.5837 0.157485 18.5745 0.0781901 18.5625 0C19.0782 0.534802 19.8146 0.8483 20.6121 0.797672C20.9936 0.773352 21.3504 0.667822 21.6679 0.499577C21.4213 0.932017 21.2933 1.43926 21.3271 1.97384C21.3687 2.63562 21.6505 3.22429 22.0811 3.661C21.8608 3.61642 21.6314 3.59925 21.3965 3.61428C20.4633 3.67353 19.6758 4.21652 19.2587 4.98449C19.094 3.84929 18.2178 2.9668 17.1221 2.77262C18.0478 2.31799 18.6578 1.33542 18.5887 0.238034Z" fill="#F9AD3C"/>
<path id="Vector_6" d="M22.5431 9.70999C22.6487 9.70999 22.7398 9.69783 22.8161 9.67351C22.8925 9.64919 22.9549 9.61529 23.0032 9.57182C23.0529 9.52701 23.0892 9.47454 23.112 9.4144C23.135 9.35302 23.1464 9.28588 23.1464 9.21292C23.1464 9.07091 23.0961 8.95897 22.9955 8.8771C22.895 8.79389 22.7442 8.75233 22.5431 8.75233H21.9512V9.70999H22.5431ZM21.9512 7.54897V8.48747H22.44C22.5444 8.48747 22.6347 8.47598 22.7111 8.45291C22.7887 8.42992 22.8524 8.39793 22.902 8.35696C22.9529 8.31599 22.9905 8.26676 23.0147 8.2092C23.0389 8.15032 23.051 8.08635 23.051 8.0173C23.051 7.8548 23.0026 7.73645 22.9058 7.66224C22.8091 7.5867 22.6589 7.54897 22.4552 7.54897H21.9512ZM22.4552 7.25537C22.6233 7.25537 22.7678 7.27195 22.8887 7.30526C23.0109 7.3385 23.1108 7.38588 23.1884 7.44727C23.2673 7.50866 23.3252 7.5842 23.3622 7.67374C23.399 7.76202 23.4175 7.86181 23.4175 7.97316C23.4175 8.04096 23.4067 8.10618 23.385 8.16889C23.3647 8.23028 23.3335 8.28791 23.2915 8.34163C23.2495 8.39535 23.196 8.44399 23.1311 8.48747C23.0675 8.5297 22.9924 8.56426 22.9058 8.59109C23.107 8.62948 23.2578 8.70178 23.3584 8.80797C23.4601 8.91291 23.5111 9.05109 23.5111 9.2225C23.5111 9.33894 23.4894 9.44513 23.4461 9.54109C23.4042 9.63704 23.3418 9.71957 23.259 9.7887C23.1776 9.85775 23.0771 9.91147 22.9574 9.94987C22.8378 9.98701 22.7016 10.0055 22.5488 10.0055H21.5828V7.25537H22.4552Z" fill="#0CA49D"/>
<path id="Vector_7" d="M25.4669 8.98454L25.0373 7.86564C25.0246 7.8324 25.0112 7.79401 24.9972 7.75053C24.9832 7.70572 24.9698 7.65841 24.9571 7.60852C24.9304 7.71213 24.903 7.7985 24.875 7.86755L24.4454 8.98454H25.4669ZM26.2382 10.0055H25.9518C25.9187 10.0055 25.892 9.99725 25.8716 9.9806C25.8512 9.96394 25.836 9.94287 25.8258 9.91722L25.57 9.25323H24.3424L24.0865 9.91722C24.0789 9.94029 24.0642 9.96077 24.0426 9.97868C24.021 9.99659 23.9942 10.0055 23.9624 10.0055H23.676L24.77 7.25537H25.1442L26.2382 10.0055Z" fill="#0CA49D"/>
<path id="Vector_8" d="M28.8147 7.25537V10.0055H28.6295C28.6002 10.0055 28.5754 10.0004 28.555 9.99018C28.536 9.97994 28.5168 9.96269 28.4978 9.93837L26.9151 7.86564C26.9176 7.89762 26.9195 7.92901 26.9208 7.95967C26.922 7.9904 26.9227 8.01922 26.9227 8.04604V10.0055H26.5981V7.25537H26.789C26.8055 7.25537 26.8195 7.25662 26.8311 7.2592C26.8425 7.26046 26.8527 7.2637 26.8616 7.26878C26.8705 7.27262 26.8794 7.27903 26.8883 7.28795C26.8973 7.29568 26.9068 7.30593 26.917 7.31868L28.4997 9.38949C28.4971 9.35618 28.4946 9.3242 28.4921 9.29354C28.4907 9.26156 28.4902 9.23149 28.4902 9.20334V7.25537H28.8147Z" fill="#0CA49D"/>
<path id="Vector_9" d="M29.8827 8.46057H30.0221C30.0704 8.46057 30.1092 8.45483 30.1385 8.44333C30.1678 8.43051 30.1945 8.40943 30.2187 8.38003L31.1293 7.34366C31.1549 7.31035 31.1815 7.28736 31.2096 7.27453C31.2376 7.26178 31.2719 7.25537 31.3127 7.25537H31.6257L30.5833 8.4395C30.5579 8.47023 30.533 8.4958 30.5089 8.51629C30.486 8.53545 30.4612 8.55144 30.4344 8.56426C30.4688 8.57576 30.5 8.593 30.528 8.61607C30.556 8.63781 30.5833 8.66662 30.6101 8.70244L31.6983 10.0055H31.3776C31.3534 10.0055 31.3324 10.0043 31.3146 10.0017C31.298 9.99784 31.2834 9.99276 31.2707 9.98635C31.2579 9.97868 31.2465 9.97036 31.2363 9.96137C31.2274 9.9512 31.2185 9.93962 31.2096 9.92688L30.2664 8.83487C30.241 8.80289 30.2136 8.78048 30.1843 8.76766C30.155 8.75358 30.1105 8.74658 30.0507 8.74658H29.8827V10.0055H29.5142V7.25537H29.8827V8.46057Z" fill="#0CA49D"/>
<path id="Vector_10" d="M34.4187 7.68569C34.4073 7.70492 34.3945 7.71959 34.3805 7.72983C34.3678 7.73882 34.3519 7.74332 34.3328 7.74332C34.3112 7.74332 34.2857 7.73241 34.2564 7.71067C34.2272 7.68893 34.1903 7.6652 34.1457 7.63963C34.1024 7.61281 34.0496 7.58849 33.9872 7.56675C33.9261 7.54493 33.8517 7.5341 33.7639 7.5341C33.6811 7.5341 33.608 7.5456 33.5443 7.56866C33.4819 7.5904 33.4291 7.62047 33.3858 7.65887C33.3438 7.69719 33.312 7.74266 33.2904 7.79513C33.2688 7.84627 33.2579 7.90191 33.2579 7.96204C33.2579 8.03883 33.2764 8.1028 33.3133 8.15402C33.3515 8.20391 33.4011 8.24673 33.4622 8.28254C33.5246 8.31843 33.5945 8.34975 33.6722 8.37658C33.7511 8.40222 33.8313 8.42905 33.9128 8.4572C33.9955 8.48535 34.0757 8.51733 34.1533 8.55315C34.2323 8.58771 34.3023 8.63186 34.3634 8.68558C34.4257 8.7393 34.4754 8.80526 34.5123 8.8833C34.5505 8.96135 34.5695 9.0573 34.5695 9.17115C34.5695 9.29142 34.5492 9.40462 34.5084 9.51081C34.4678 9.61575 34.4079 9.70721 34.329 9.78533C34.2513 9.86337 34.1552 9.92476 34.0407 9.96956C33.9274 10.0143 33.7982 10.0367 33.6531 10.0367C33.4749 10.0367 33.3133 10.0047 33.1682 9.94075C33.0231 9.87553 32.899 9.78783 32.7959 9.67781L32.9028 9.50123C32.913 9.48716 32.9251 9.47566 32.9391 9.46667C32.9543 9.4565 32.9709 9.45134 32.9887 9.45134C33.0053 9.45134 33.0238 9.45842 33.0441 9.47249C33.0658 9.48524 33.0899 9.5019 33.1166 9.52238C33.1434 9.54287 33.1739 9.5652 33.2083 9.58952C33.2427 9.61384 33.2814 9.63624 33.3248 9.65673C33.3693 9.67714 33.4196 9.69446 33.4756 9.70854C33.5316 9.72129 33.5945 9.7277 33.6646 9.7277C33.7524 9.7277 33.8307 9.71554 33.8995 9.69122C33.9681 9.66697 34.0261 9.633 34.0731 9.58952C34.1215 9.54479 34.1585 9.49165 34.1839 9.43026C34.2093 9.3688 34.2221 9.30034 34.2221 9.22488C34.2221 9.14175 34.203 9.07395 34.1648 9.02148C34.1279 8.96768 34.0789 8.92295 34.0178 8.88714C33.9567 8.85132 33.8867 8.82125 33.8077 8.79693C33.7289 8.77136 33.6487 8.74572 33.5672 8.72014C33.4858 8.69324 33.4056 8.66259 33.3267 8.62803C33.2477 8.59346 33.1777 8.54873 33.1166 8.49368C33.0556 8.4387 33.0059 8.37024 32.9677 8.28837C32.9308 8.20516 32.9124 8.1028 32.9124 7.98128C32.9124 7.884 32.9308 7.78997 32.9677 7.69918C33.0059 7.60831 33.0606 7.52769 33.1319 7.45731C33.2045 7.38693 33.2929 7.33063 33.3973 7.2884C33.5029 7.24625 33.6239 7.2251 33.76 7.2251C33.9128 7.2251 34.0515 7.24942 34.1763 7.29806C34.3023 7.34662 34.413 7.417 34.5084 7.50912L34.4187 7.68569Z" fill="#0CA49D"/>
<path id="Vector_11" d="M36.0638 8.90967V10.0055H35.6935V8.90967L34.6912 7.25537H35.0157C35.0488 7.25537 35.0749 7.2637 35.094 7.28028C35.1131 7.29568 35.1296 7.3161 35.1436 7.34174L35.7699 8.41068C35.7927 8.45549 35.8138 8.49772 35.8328 8.53736C35.852 8.57576 35.8685 8.61474 35.8825 8.65446C35.8965 8.61474 35.9124 8.57576 35.9302 8.53736C35.9481 8.49772 35.9678 8.45549 35.9894 8.41068L36.6137 7.34174C36.6252 7.32 36.6411 7.3001 36.6615 7.2822C36.6818 7.26429 36.7079 7.25537 36.7397 7.25537H37.0662L36.0638 8.90967Z" fill="#0CA49D"/>
<path id="Vector_12" d="M38.6041 8.98454L38.1745 7.86564C38.1618 7.8324 38.1485 7.79401 38.1344 7.75053C38.1204 7.70572 38.107 7.65841 38.0943 7.60852C38.0676 7.71213 38.0402 7.7985 38.0122 7.86755L37.5826 8.98454H38.6041ZM39.3754 10.0055H39.089C39.0559 10.0055 39.0292 9.99725 39.0088 9.9806C38.9885 9.96394 38.9732 9.94287 38.963 9.91722L38.7072 9.25323H37.4796L37.2237 9.91722C37.2161 9.94029 37.2014 9.96077 37.1798 9.97868C37.1582 9.99659 37.1315 10.0055 37.0996 10.0055H36.8132L37.9072 7.25537H38.2814L39.3754 10.0055Z" fill="#0CA49D"/>
<path id="Vector_13" d="M40.4931 8.58726C40.6 8.58726 40.6942 8.5745 40.7756 8.54886C40.8583 8.52203 40.9271 8.48489 40.9818 8.43758C41.0378 8.38894 41.0798 8.33139 41.1078 8.26484C41.1358 8.1983 41.1498 8.12475 41.1498 8.04412C41.1498 7.88038 41.0964 7.75686 40.9895 7.67374C40.8825 7.59053 40.7222 7.54897 40.5083 7.54897H40.1036V8.58726H40.4931ZM41.757 10.0055H41.4285C41.3611 10.0055 41.3114 9.97927 41.2796 9.92688L40.5694 8.94423C40.5478 8.9135 40.5242 8.89176 40.4988 8.87901C40.4746 8.86494 40.4364 8.85786 40.3842 8.85786H40.1036V10.0055H39.7351V7.25537H40.5083C40.6814 7.25537 40.831 7.27328 40.957 7.30909C41.083 7.34366 41.1867 7.39414 41.2682 7.46069C41.3509 7.52723 41.412 7.60785 41.4515 7.70255C41.4909 7.79592 41.5106 7.90086 41.5106 8.0173C41.5106 8.1145 41.4954 8.20537 41.4648 8.28982C41.4342 8.3742 41.3897 8.45033 41.3312 8.5182C41.2739 8.58468 41.2032 8.64164 41.1192 8.68895C41.0365 8.73634 40.9423 8.77216 40.8367 8.79647C40.8838 8.8233 40.9245 8.86236 40.9589 8.9135L41.757 10.0055Z" fill="#0CA49D"/>
<path id="Vector_14" d="M42.4995 10.0055H42.1292V7.25537H42.4995V10.0055Z" fill="#0CA49D"/>
<path id="Vector_15" d="M44.6522 8.98454L44.2226 7.86564C44.2099 7.8324 44.1965 7.79401 44.1825 7.75053C44.1685 7.70572 44.1551 7.65841 44.1424 7.60852C44.1157 7.71213 44.0883 7.7985 44.0603 7.86755L43.6307 8.98454H44.6522ZM45.4235 10.0055H45.1371C45.104 10.0055 45.0773 9.99725 45.0569 9.9806C45.0365 9.96394 45.0213 9.94287 45.0111 9.91722L44.7552 9.25323H43.5277L43.2718 9.91722C43.2642 9.94029 43.2495 9.96077 43.2279 9.97868C43.2063 9.99659 43.1795 10.0055 43.1477 10.0055H42.8613L43.9553 7.25537H44.3295L45.4235 10.0055Z" fill="#0CA49D"/>
<path id="Vector_16" d="M48 7.25537V10.0055H47.6296V8.75425H46.1538V10.0055H45.7834V7.25537H46.1538V8.48172H47.6296V7.25537H48Z" fill="#0CA49D"/>
<path id="Vector_17" d="M21.9531 13.6311H21.5828V10.8809H21.9531V13.6311Z" fill="#0CA49D"/>
<path id="Vector_18" d="M24.8694 10.8809V13.6311H24.6842C24.655 13.6311 24.6301 13.626 24.6098 13.6157C24.5907 13.6055 24.5716 13.5882 24.5525 13.5639L22.9698 11.4912C22.9723 11.5232 22.9742 11.5545 22.9755 11.5852C22.9768 11.616 22.9774 11.6447 22.9774 11.6716V13.6311H22.6528V10.8809H22.8437C22.8603 10.8809 22.8743 10.8822 22.8857 10.8848C22.8972 10.886 22.9074 10.8892 22.9163 10.8943C22.9252 10.8982 22.9341 10.9046 22.943 10.9135C22.9519 10.9212 22.9615 10.9314 22.9717 10.9442L24.5544 13.015C24.5519 12.9817 24.5493 12.9498 24.5468 12.919C24.5455 12.887 24.5449 12.857 24.5449 12.8288V10.8809H24.8694Z" fill="#0CA49D"/>
<path id="Vector_19" d="M27.9401 12.257C27.9401 12.4629 27.9076 12.6503 27.8427 12.8192C27.7778 12.9882 27.6861 13.1327 27.5678 13.253C27.4494 13.3733 27.3068 13.4667 27.1401 13.5332C26.9747 13.5984 26.7914 13.6311 26.5903 13.6311H25.5688V10.8809H26.5903C26.7914 10.8809 26.9747 10.9142 27.1401 10.9807C27.3068 11.0459 27.4494 11.1393 27.5678 11.2609C27.6861 11.3812 27.7778 11.5258 27.8427 11.6946C27.9076 11.8635 27.9401 12.051 27.9401 12.257ZM27.5601 12.257C27.5601 12.0881 27.5373 11.9371 27.4914 11.804C27.4456 11.6709 27.3807 11.5583 27.2966 11.4662C27.2127 11.3741 27.1109 11.3037 26.9912 11.2552C26.8716 11.2065 26.7379 11.1822 26.5903 11.1822H25.9392V13.3297H26.5903C26.7379 13.3297 26.8716 13.3055 26.9912 13.2569C27.1109 13.2082 27.2127 13.1385 27.2966 13.0476C27.3807 12.9555 27.4456 12.8429 27.4914 12.7099C27.5373 12.5768 27.5601 12.4258 27.5601 12.257Z" fill="#0CA49D"/>
<path id="Vector_20" d="M31.0017 12.2569C31.0017 12.4628 30.9693 12.6522 30.9043 12.8249C30.8394 12.9964 30.7478 13.1441 30.6294 13.2682C30.5111 13.3923 30.3685 13.489 30.2018 13.558C30.0363 13.6259 29.853 13.6598 29.6519 13.6598C29.4508 13.6598 29.2675 13.6259 29.102 13.558C28.9366 13.489 28.7946 13.3923 28.6763 13.2682C28.5579 13.1441 28.4663 12.9964 28.4014 12.8249C28.3364 12.6522 28.304 12.4628 28.304 12.2569C28.304 12.0509 28.3364 11.8621 28.4014 11.6907C28.4663 11.5179 28.5579 11.3696 28.6763 11.2454C28.7946 11.12 28.9366 11.0228 29.102 10.9537C29.2675 10.8847 29.4508 10.8501 29.6519 10.8501C29.853 10.8501 30.0363 10.8847 30.2018 10.9537C30.3685 11.0228 30.5111 11.12 30.6294 11.2454C30.7478 11.3696 30.8394 11.5179 30.9043 11.6907C30.9693 11.8621 31.0017 12.0509 31.0017 12.2569ZM30.6218 12.2569C30.6218 12.0879 30.5989 11.9364 30.5531 11.802C30.5072 11.6677 30.4423 11.5544 30.3583 11.4623C30.2743 11.3689 30.1724 11.2973 30.0528 11.2474C29.9331 11.1974 29.7995 11.1725 29.6519 11.1725C29.5055 11.1725 29.3725 11.1974 29.2529 11.2474C29.1332 11.2973 29.0308 11.3689 28.9455 11.4623C28.8615 11.5544 28.7965 11.6677 28.7507 11.802C28.7049 11.9364 28.682 12.0879 28.682 12.2569C28.682 12.4257 28.7049 12.5774 28.7507 12.7117C28.7965 12.8447 28.8615 12.958 28.9455 13.0514C29.0308 13.1435 29.1332 13.2145 29.2529 13.2644C29.3725 13.3131 29.5055 13.3374 29.6519 13.3374C29.7995 13.3374 29.9331 13.3131 30.0528 13.2644C30.1724 13.2145 30.2743 13.1435 30.3583 13.0514C30.4423 12.958 30.5072 12.8447 30.5531 12.7117C30.5989 12.5774 30.6218 12.4257 30.6218 12.2569Z" fill="#0CA49D"/>
<path id="Vector_21" d="M33.7481 10.8809V13.6311H33.5629C33.5336 13.6311 33.5088 13.626 33.4885 13.6157C33.4693 13.6055 33.4503 13.5882 33.4311 13.5639L31.8484 11.4912C31.851 11.5232 31.8529 11.5545 31.8541 11.5852C31.8555 11.616 31.856 11.6447 31.856 11.6716V13.6311H31.5315V10.8809H31.7224C31.739 10.8809 31.753 10.8822 31.7644 10.8848C31.7758 10.886 31.786 10.8892 31.795 10.8943C31.8038 10.8982 31.8128 10.9046 31.8217 10.9135C31.8306 10.9212 31.8401 10.9314 31.8503 10.9442L33.433 13.015C33.4305 12.9817 33.428 12.9498 33.4254 12.919C33.4242 12.887 33.4235 12.857 33.4235 12.8288V10.8809H33.7481Z" fill="#0CA49D"/>
<path id="Vector_22" d="M36.1353 13.3278L36.1334 13.6311H34.4475V10.8809H36.1334V11.1841H34.8179V12.0976H35.8832V12.3894H34.8179V13.3278H36.1353Z" fill="#0CA49D"/>
<path id="Vector_23" d="M38.0508 11.3107C38.0394 11.3299 38.0266 11.3446 38.0126 11.3548C37.9999 11.3637 37.984 11.3682 37.9649 11.3682C37.9433 11.3682 37.9178 11.3574 37.8885 11.3356C37.8592 11.3139 37.8224 11.2902 37.7778 11.2646C37.7345 11.2377 37.6817 11.2134 37.6193 11.1917C37.5582 11.1699 37.4837 11.1591 37.3959 11.1591C37.3132 11.1591 37.2401 11.1706 37.1764 11.1936C37.114 11.2153 37.0612 11.2454 37.0179 11.2838C36.9759 11.3222 36.9441 11.3676 36.9225 11.4201C36.9008 11.4713 36.89 11.5269 36.89 11.587C36.89 11.6638 36.9085 11.7278 36.9453 11.7789C36.9835 11.8288 37.0332 11.8717 37.0943 11.9075C37.1566 11.9434 37.2266 11.9748 37.3043 12.0016C37.3832 12.0271 37.4634 12.054 37.5449 12.0822C37.6276 12.1104 37.7078 12.1423 37.7854 12.1781C37.8644 12.2127 37.9343 12.2569 37.9955 12.3106C38.0578 12.3643 38.1075 12.4302 38.1444 12.5082C38.1825 12.5863 38.2016 12.6822 38.2016 12.7962C38.2016 12.9164 38.1813 13.0296 38.1405 13.1358C38.0998 13.2408 38.04 13.3322 37.9611 13.4103C37.8834 13.4883 37.7873 13.5498 37.6728 13.5945C37.5595 13.6393 37.4303 13.6617 37.2852 13.6617C37.107 13.6617 36.9453 13.6297 36.8003 13.5657C36.6552 13.5005 36.5311 13.4128 36.428 13.3028L36.5349 13.1262C36.5451 13.1122 36.5572 13.1007 36.5712 13.0917C36.5864 13.0814 36.603 13.0763 36.6208 13.0763C36.6374 13.0763 36.6558 13.0833 36.6761 13.0974C36.6978 13.1102 36.722 13.1269 36.7487 13.1473C36.7755 13.1678 36.806 13.1902 36.8404 13.2145C36.8747 13.2388 36.9135 13.2612 36.9568 13.2817C37.0013 13.3021 37.0516 13.3195 37.1076 13.3335C37.1637 13.3463 37.2266 13.3527 37.2966 13.3527C37.3845 13.3527 37.4628 13.3405 37.5315 13.3162C37.6002 13.2919 37.6581 13.258 37.7052 13.2145C37.7536 13.1697 37.7905 13.1167 37.816 13.0552C37.8414 12.9938 37.8542 12.9253 37.8542 12.8499C37.8542 12.7667 37.835 12.6989 37.7969 12.6464C37.76 12.5927 37.7109 12.548 37.6499 12.5121C37.5888 12.4762 37.5188 12.4462 37.4398 12.4219C37.3609 12.3963 37.2807 12.3707 37.1993 12.3451C37.1178 12.3182 37.0376 12.2875 36.9588 12.253C36.8798 12.2185 36.8098 12.1737 36.7487 12.1187C36.6876 12.0636 36.638 11.9952 36.5998 11.9133C36.5629 11.8302 36.5444 11.7278 36.5444 11.6062C36.5444 11.509 36.5629 11.415 36.5998 11.3241C36.638 11.2333 36.6927 11.1527 36.764 11.0823C36.8365 11.0119 36.925 10.9556 37.0294 10.9134C37.135 10.8712 37.256 10.8501 37.3921 10.8501C37.5449 10.8501 37.6836 10.8744 37.8084 10.923C37.9343 10.9716 38.0451 11.042 38.1405 11.1341L38.0508 11.3107Z" fill="#0CA49D"/>
<path id="Vector_24" d="M39.0948 13.6311H38.7244V10.8809H39.0948V13.6311Z" fill="#0CA49D"/>
<path id="Vector_25" d="M41.2476 12.6101L40.818 11.4912C40.8053 11.4579 40.7919 11.4196 40.7779 11.376C40.7639 11.3313 40.7506 11.2839 40.7378 11.234C40.7111 11.3376 40.6838 11.424 40.6558 11.4931L40.2262 12.6101H41.2476ZM42.0189 13.6311H41.7326C41.6995 13.6311 41.6728 13.6227 41.6524 13.6061C41.632 13.5895 41.6168 13.5684 41.6066 13.5428L41.3507 12.8787H40.1231L39.8673 13.5428C39.8596 13.5659 39.845 13.5863 39.8233 13.6042C39.8017 13.6222 39.775 13.6311 39.7431 13.6311H39.4568L40.5507 10.8809H40.925L42.0189 13.6311Z" fill="#0CA49D"/>
</g>
</g>
</svg>
