<svg width="56" height="40" viewBox="0 0 56 40" fill="none" xmlns="http://www.w3.org/2000/svg">
<g id="BCA">
<rect id="Background" width="56" height="40" rx="4" fill="#0060AF"/>
<g id="logo">
<path id="Fill 1" fill-rule="evenodd" clip-rule="evenodd" d="M11.5179 23.8328C11.5179 23.2959 11.5241 21.861 11.51 21.6842C11.5223 19.549 9.87537 18.0428 8.83494 18.1602C8.11501 18.2191 7.51151 18.4959 7.18768 19.2919C6.88728 20.0339 7.15586 21.0207 8.15416 21.2523C9.22151 21.501 9.84497 21.7079 10.2961 21.9998C10.8488 22.3572 11.3 23.04 11.312 23.8336" fill="white"/>
<path id="Fill 6" fill-rule="evenodd" clip-rule="evenodd" d="M11.0717 23.834C11.0752 23.1459 10.6678 22.5374 10.1353 22.2104C9.66291 21.9214 9.02876 21.7316 8.00572 21.4869C7.68948 21.4107 7.35869 21.2413 7.25628 21.0254C6.98539 21.2827 6.93618 21.8612 6.98384 22.1994C7.03923 22.5905 7.52421 23.2353 8.25446 23.2605C8.70041 23.2774 9.26423 23.1701 9.53461 23.1159C10.001 23.0209 10.739 23.2963 10.8565 23.8332" fill="white"/>
<path id="Fill 8" fill-rule="evenodd" clip-rule="evenodd" d="M11.895 14.8325C10.6567 14.8325 9.58734 15.6023 9.59107 16.9342C9.59494 18.0543 10.5505 18.6539 10.8916 19.0822C11.4068 19.7275 11.6857 20.4915 11.7146 21.6603C11.7372 22.5906 11.7361 23.5092 11.7411 23.8347H12.0143C12.0097 23.4941 11.9973 22.5189 12.0114 21.6315C12.0299 20.4623 12.3188 19.7275 12.8343 19.0822C13.1784 18.6539 14.133 18.0543 14.1351 16.9342C14.1399 15.6023 13.0708 14.8325 11.8338 14.8325" fill="white"/>
<path id="Fill 10" fill-rule="evenodd" clip-rule="evenodd" d="M12.2093 23.8328C12.2093 23.2959 12.2028 21.861 12.2166 21.6842C12.2045 19.549 13.8504 18.0428 14.8917 18.1602C15.6116 18.2191 16.2143 18.4959 16.5392 19.2919C16.8392 20.0339 16.5692 21.0207 15.5722 21.2523C14.5041 21.501 13.8815 21.7079 13.4293 21.9998C12.8772 22.3572 12.4575 23.04 12.4446 23.8336" fill="white"/>
<path id="Fill 12" fill-rule="evenodd" clip-rule="evenodd" d="M12.6551 23.834C12.6512 23.1459 13.0585 22.5374 13.5895 22.2104C14.0639 21.9214 14.6987 21.7316 15.7208 21.4869C16.0377 21.4107 16.3681 21.2413 16.4687 21.0254C16.7409 21.2827 16.7901 21.8612 16.7423 22.1994C16.6859 22.5905 16.2021 23.2353 15.4731 23.2605C15.0274 23.2774 14.4605 23.1701 14.1913 23.1159C13.7267 23.0209 12.9866 23.2963 12.8686 23.8332" fill="white"/>
<path id="Fill 14" fill-rule="evenodd" clip-rule="evenodd" d="M13.037 26.0555L12.8787 24.9657L13.2611 24.911C13.3541 24.8991 13.4675 24.9144 13.5128 24.9693C13.5629 25.0267 13.5782 25.0742 13.5879 25.1495C13.6025 25.2428 13.5739 25.3503 13.4626 25.404V25.4073C13.5868 25.4073 13.6618 25.4914 13.6837 25.6335C13.6868 25.6636 13.6964 25.736 13.6868 25.7965C13.6616 25.9404 13.5706 25.9867 13.4168 26.007L13.037 26.0555ZM13.2831 25.8605C13.3285 25.8543 13.3745 25.852 13.4104 25.8303C13.4655 25.7965 13.4605 25.7241 13.4528 25.6702C13.4337 25.552 13.401 25.507 13.2679 25.5256L13.1842 25.5377L13.2373 25.8664L13.2831 25.8605ZM13.2031 25.3568C13.2538 25.3491 13.3223 25.3433 13.3509 25.298C13.366 25.2678 13.385 25.2437 13.3724 25.1765C13.3568 25.0968 13.3289 25.0473 13.2213 25.0664L13.1212 25.0816L13.1608 25.3609L13.2031 25.3568Z" fill="white"/>
<path id="Fill 16" fill-rule="evenodd" clip-rule="evenodd" d="M14.6938 25.4C14.6967 25.4203 14.7002 25.4429 14.7015 25.4632C14.7324 25.6618 14.6938 25.8265 14.4568 25.8718C14.1063 25.9353 14.0392 25.7302 13.9776 25.4429L13.9447 25.2873C13.8964 25.0125 13.8757 24.8044 14.2173 24.7402C14.4099 24.7072 14.5371 24.7794 14.5901 24.9601C14.5983 24.987 14.6086 25.0136 14.6125 25.0408L14.4029 25.0816C14.3787 25.0136 14.3466 24.8923 14.2523 24.9025C14.0831 24.9218 14.139 25.1203 14.1564 25.2033L14.2194 25.5017C14.2383 25.5919 14.2759 25.736 14.4224 25.7082C14.5413 25.6857 14.4894 25.5111 14.4788 25.4395" fill="white"/>
<path id="Fill 18" fill-rule="evenodd" clip-rule="evenodd" d="M15.0302 25.7298L14.9578 24.602L15.2392 24.521L15.8296 25.5019L15.6079 25.5644L15.468 25.3151L15.2218 25.3848L15.2536 25.6683L15.0302 25.7298ZM15.2012 25.2027L15.3791 25.1541L15.1429 24.6978L15.2012 25.2027Z" fill="white"/>
<path id="Fill 20" fill-rule="evenodd" clip-rule="evenodd" d="M8.07519 24.8771C8.1633 24.6113 8.24213 24.4154 8.57847 24.5023C8.75842 24.5498 8.86997 24.6245 8.86469 24.8216C8.86379 24.8654 8.84846 24.9102 8.83841 24.9534L8.62909 24.899C8.65653 24.7901 8.67392 24.7038 8.53171 24.6625C8.36734 24.62 8.32728 24.808 8.30461 24.8891L8.21946 25.1846C8.19241 25.2724 8.15995 25.4175 8.30461 25.4551C8.42415 25.4853 8.49654 25.3748 8.53982 25.2133L8.39349 25.1766L8.44411 25.0057L8.78843 25.11L8.62497 25.6798L8.46653 25.6393L8.50221 25.5188H8.4977C8.42466 25.6174 8.33578 25.6277 8.25785 25.6135C7.91353 25.5259 7.94947 25.3137 8.03165 25.0303" fill="white"/>
<path id="Fill 22" fill-rule="evenodd" clip-rule="evenodd" d="M9.35688 25.3583L9.25319 25.8219L9.01978 25.7744L9.26851 24.6919L9.66642 24.7765C9.89931 24.824 9.96965 24.9216 9.93667 25.123C9.91786 25.2384 9.85745 25.3628 9.70996 25.3527L9.70841 25.3509C9.8331 25.3919 9.84367 25.4513 9.8219 25.5537C9.81249 25.5974 9.7477 25.8619 9.7924 25.9046L9.79394 25.9371L9.55242 25.8776C9.54237 25.8044 9.57664 25.6726 9.59016 25.5995C9.60369 25.5349 9.62546 25.4438 9.5559 25.4097C9.50154 25.3822 9.48119 25.3836 9.41961 25.3703L9.35688 25.3583ZM9.39668 25.1906L9.55384 25.2306C9.64929 25.2437 9.70236 25.197 9.72117 25.0882C9.73817 24.9885 9.71614 24.9497 9.63048 24.9304L9.46199 24.8981L9.39668 25.1906Z" fill="white"/>
<path id="Fill 24" fill-rule="evenodd" clip-rule="evenodd" d="M10.854 24.9336L11.0848 24.9589L10.9853 25.72C10.937 25.9613 10.8381 26.0667 10.5565 26.0338C10.27 25.9995 10.202 25.8767 10.2193 25.6334L10.3195 24.873L10.5521 24.8981L10.4523 25.6414C10.4416 25.7222 10.4219 25.8418 10.5742 25.8564C10.7093 25.8661 10.74 25.7816 10.7553 25.6767" fill="white"/>
<path id="Fill 26" fill-rule="evenodd" clip-rule="evenodd" d="M11.3391 26.0755L11.4087 24.9873L11.852 25.0054C12.0618 25.0152 12.1165 25.1765 12.1101 25.3305C12.1039 25.4241 12.073 25.5286 11.9864 25.5853C11.9154 25.6335 11.8241 25.645 11.7396 25.6411L11.5951 25.6335L11.5662 26.0896L11.3391 26.0755ZM11.6015 25.4676L11.719 25.4737C11.8144 25.477 11.8777 25.4414 11.8859 25.3093C11.8907 25.1826 11.8397 25.1609 11.716 25.1558L11.623 25.1528L11.6015 25.4676Z" fill="white"/>
<path id="Fill 28" fill-rule="evenodd" clip-rule="evenodd" d="M42.6193 15.8842L40.8566 18.9003C40.1913 18.3909 39.379 18.0162 38.3424 18.0162C35.8894 18.0162 34.8929 19.7397 34.8929 20.9539C34.8929 21.8552 35.519 23.1849 37.7016 23.1849C38.6178 23.1849 39.9201 22.5842 40.295 22.3107L38.5517 25.8098C37.7208 25.9661 37.4477 26.063 36.7444 26.0835C32.8377 26.1934 31.2592 23.9311 31.2603 21.6195C31.263 18.5636 34.145 14.8471 38.9231 14.8471C39.2158 14.8471 39.5739 14.9427 39.8801 15.0484L40.1896 14.6753" fill="white"/>
<path id="Fill 30" fill-rule="evenodd" clip-rule="evenodd" d="M49.8924 14.77L50.3915 25.7315H46.6768L46.6747 23.8517H44.1416L43.3081 25.7315H39.2793L43.4912 17.9041L42.5415 17.8983L44.3459 14.77H49.8924ZM46.6505 18.1234L45.2185 21.3117H46.6938L46.6505 18.1234Z" fill="white"/>
<path id="Fill 32" fill-rule="evenodd" clip-rule="evenodd" d="M28.9151 14.7704C30.7547 14.7801 31.7943 15.7215 31.7943 17.0811C31.7943 18.3347 30.6979 19.4442 29.4944 20.018C30.7335 20.4475 30.8406 21.5015 30.8406 22.247C30.8406 24.0487 28.9231 25.7319 26.4305 25.7319H20.9941L23.1147 18.0135L22.2436 18.0088L24.0242 14.7704C24.0242 14.7704 27.4192 14.7607 28.9151 14.7704ZM27.1103 19.2147C27.4909 19.2147 28.1627 19.1239 28.3307 18.4297C28.5148 17.676 27.8842 17.6557 27.5818 17.6557L26.501 17.6513L26.1241 19.2147H27.1103ZM25.5824 21.1517L25.0847 22.9533H26.3574C26.858 22.9533 27.5403 22.7189 27.7075 22.1326C27.8727 21.5448 27.3957 21.1517 26.8969 21.1517H25.5824Z" fill="white"/>
<g id="group">
<path id="Fill 3" fill-rule="evenodd" clip-rule="evenodd" d="M11.944 27.0786C10.0617 27.0786 8.12743 26.6416 6.19561 25.7772L6.14821 25.7553L6.12554 25.7097C5.25863 23.9847 4.80005 22.0981 4.80005 20.2521C4.80005 18.4088 5.23982 16.6028 6.10725 14.8801L6.13121 14.8343L6.17951 14.8115C7.96654 14.0135 9.88883 13.6094 11.8951 13.6094C13.7638 13.6094 15.7598 14.0593 17.6659 14.9129L17.7148 14.9334L17.7374 14.9801C18.6208 16.7369 19.0868 18.6232 19.0868 20.4386C19.0868 22.2468 18.6394 24.0545 17.7548 25.8103L17.7316 25.8563L17.6824 25.8777C15.9226 26.6629 13.9382 27.0786 11.944 27.0786ZM6.37441 25.5407C8.25096 26.373 10.1228 26.7931 11.944 26.7931C13.8752 26.7931 15.7957 26.3952 17.5054 25.6409C18.3547 23.9395 18.7852 22.1885 18.7852 20.4386C18.7852 18.6814 18.3359 16.8538 17.486 15.1486C15.6361 14.3288 13.7042 13.8941 11.8951 13.8941C9.95285 13.8941 8.09111 14.2825 6.35818 15.0487C5.5263 16.7183 5.10289 18.468 5.10289 20.2521C5.10289 22.0394 5.54279 23.8679 6.37441 25.5407Z" fill="white"/>
</g>
</g>
</g>
</svg>
