<svg width="56" height="40" viewBox="0 0 56 40" fill="none" xmlns="http://www.w3.org/2000/svg">
<g id="BNI">
<rect id="Background" width="56" height="40" rx="4" fill="white"/>
<g id="logo">
<path id="46" fill-rule="evenodd" clip-rule="evenodd" d="M9.08169 23.7524L10.9822 26.1059H6.27691L9.08169 23.7524ZM8.48406 23.0254L4.80337 26.1131L4.80186 18.5194L8.48406 23.0254ZM17.3401 15.379C17.3401 15.379 16.5321 14.9965 15.5934 15.0524C14.5202 15.1156 13.6224 15.5271 13.1063 16.0702C12.7815 16.4114 12.4225 16.8276 12.2422 17.2796C11.9806 17.9335 11.9248 18.7975 11.9248 18.7975C11.9248 18.7975 11.5495 18.4789 11.0792 17.5507C10.5324 16.471 10.3829 15.8169 10.3088 15.0708C10.2428 14.416 10.3464 13.7686 10.3464 13.7686H17.3401V15.379ZM17.3401 17.5318V22.3199C17.3401 22.3199 16.9053 22.4869 16.5507 22.4869C16.196 22.4869 15.592 22.4343 14.8906 22.0486C14.1943 21.6661 13.8088 21.2034 13.51 20.784C13.207 20.3575 12.9568 19.7662 12.8824 19.3401C12.8226 18.9992 12.7581 18.149 13.1063 17.4579C13.2953 17.0829 13.8023 16.4401 14.7786 16.4036C15.5744 16.373 16.0157 16.5823 16.4201 16.8042C17.1898 17.2275 17.3401 17.5318 17.3401 17.5318ZM9.72474 21.9836L10.9862 20.9321C10.5842 20.4186 10.478 20.2251 10.0285 19.562C9.56839 18.8834 9.18295 18.1368 8.85335 17.2609C8.49658 16.3119 8.41041 15.7792 8.4498 15.0708C8.49915 14.1695 8.70409 13.7686 8.70409 13.7686H4.80005L4.80186 15.8727C4.80186 15.8727 7.7903 19.6178 9.72474 21.9836ZM13.3292 26.1024H17.3401V23.1779C17.3401 23.1779 16.3453 23.6342 15.6986 23.6711C15.3136 23.6936 14.9399 23.7084 14.337 23.548C13.6668 23.3699 13.2861 23.1963 12.6649 22.684C12.166 22.273 11.5955 21.6661 11.5955 21.6661L10.3266 22.7241C10.9153 23.4442 11.3501 23.9684 11.4832 24.1095C12.0555 24.7142 12.298 24.9365 12.6834 25.152C13.0687 25.368 14.356 25.3563 14.356 25.3563L13.3292 26.1024Z" fill="#E94E0F"/>
<path id="BNI_2" fill-rule="evenodd" clip-rule="evenodd" d="M47.6744 23.5008C47.6744 24.3482 47.7887 25.741 46.8397 26.0801V26.1366H50.4439V26.0801C49.4955 25.7224 49.6093 24.3482 49.6093 23.5008V16.4037C49.6093 15.5568 49.4955 14.1636 50.4439 13.806V13.7495H46.8397V13.806C47.8072 14.1636 47.6744 15.5379 47.6744 16.4037V23.5008ZM34.4586 16.4037L40.9653 24.5929C41.7997 25.6657 42.3881 26.2872 43.7349 26.7388V16.1779C43.7349 15.1238 43.7349 14.3706 44.7216 13.806V13.7495H41.3826V13.806C42.3881 14.3706 42.3688 15.1238 42.3688 16.1779V23.3127L35.4262 14.6153L35.1603 14.2388C35.0278 14.0883 34.9521 13.9942 34.8761 13.7684V13.7495H32.1061V13.806C33.0926 14.3706 33.0926 15.1238 33.0926 16.1779V23.6895C33.0926 24.7434 33.0926 25.4963 32.0875 26.0801V26.1366H35.4452V26.0801C34.4397 25.4963 34.4586 24.7434 34.4586 23.6895V16.4037ZM23.8523 18.7383V15.0486L25.1231 14.9165C26.2614 14.8036 27.4752 15.4814 27.4752 16.7805C27.4752 18.3242 25.711 18.7383 24.4783 18.7383H23.8523ZM23.8523 24.6305V19.9805L25.1799 19.9053C26.8494 19.8111 28.6325 20.602 28.6325 22.428C28.6325 24.2164 27.0584 24.9317 25.5025 24.7811L23.8523 24.6305ZM21.9171 23.4821C21.9171 24.3482 22.0311 25.7224 21.0823 26.0801V26.1366H24.2124C25.6351 26.1366 27.1342 26.1932 28.4618 25.5531C29.7328 24.9505 30.7383 23.7079 30.7383 22.2583C30.7383 20.4138 29.3532 19.2841 27.6459 18.9261C28.7274 18.4557 29.5428 17.7404 29.5428 16.479C29.5428 14.8036 28.0825 13.7495 25.5787 13.7495H21.0823V13.806C22.0503 14.1636 21.9171 15.5379 21.9171 16.3848V23.4821Z" fill="#005B6A"/>
</g>
</g>
</svg>
