<svg width="56" height="40" viewBox="0 0 56 40" fill="none" xmlns="http://www.w3.org/2000/svg">
<g id="BRI">
<rect id="Background" width="56" height="40" rx="4" fill="#00529C"/>
<g id="logo">
<path id="Fill 1" fill-rule="evenodd" clip-rule="evenodd" d="M16.6011 17.3525H19.2701C20.3509 17.3525 21.1567 17.8308 21.1567 18.8375C21.1567 19.5756 20.7832 19.9867 20.1343 20.2045V20.221C20.9077 20.3809 21.3067 20.8004 21.3067 21.513C21.3067 22.9142 20.0842 23.2075 19.0451 23.2075H16.6011V17.3525ZM18.147 19.6678H18.5798C19.0869 19.6678 19.611 19.5419 19.611 19.0466C19.611 18.5104 19.1119 18.4596 18.596 18.4596H18.147V19.6678ZM18.147 22.1005H18.6051C19.1699 22.1005 19.76 22.0165 19.76 21.4208C19.76 20.7838 19.1534 20.7245 18.6213 20.7245H18.147V22.1005Z" fill="white"/>
<path id="Fill 3" fill-rule="evenodd" clip-rule="evenodd" d="M23.3365 17.3525H25.2321L27.4687 23.2075H25.7724L25.3404 21.958H23.1621L22.7046 23.2075H21.1333L23.3365 17.3525ZM24.2847 18.5607H24.2672L23.5194 20.8509H24.9743L24.2847 18.5607Z" fill="white"/>
<path id="Fill 5" fill-rule="evenodd" clip-rule="evenodd" d="M27.6836 17.3525H29.6539L31.6162 21.3289H31.6324L31.6078 17.3525H33.0217V23.2075H31.1009L29.0716 19.2064H29.0557L29.1053 23.2075H27.6836V17.3525Z" fill="white"/>
<path id="Fill 7" fill-rule="evenodd" clip-rule="evenodd" d="M33.5469 17.3525H35.0931V19.7439H35.1098L36.8551 17.3525H38.7182L36.5727 20.0786L38.8844 23.2075H36.9133L35.1098 20.5486H35.0931V23.2075H33.5469V17.3525Z" fill="white"/>
<path id="Fill 9" fill-rule="evenodd" clip-rule="evenodd" d="M40.8013 17.3525H43.4703C44.5509 17.3525 45.3576 17.8308 45.3576 18.8375C45.3576 19.5756 44.9841 19.9867 44.3353 20.2045V20.221C45.1084 20.3809 45.5074 20.8004 45.5074 21.513C45.5074 22.9142 44.2852 23.2075 43.2463 23.2075H40.8013V17.3525ZM42.348 19.6678H42.78C43.2873 19.6678 43.8107 19.5419 43.8107 19.0466C43.8107 18.5104 43.3124 18.4596 42.7972 18.4596H42.348V19.6678ZM42.348 22.1005H42.8055C43.3703 22.1005 43.961 22.0165 43.961 21.4208C43.961 20.7838 43.3542 20.7245 42.822 20.7245H42.348V22.1005Z" fill="white"/>
<path id="Fill 11" fill-rule="evenodd" clip-rule="evenodd" d="M45.8501 17.3525H48.6105C49.6412 17.3525 50.4814 17.8221 50.4814 18.8293C50.4814 19.6093 50.1154 20.1294 49.3674 20.3053V20.3219C49.8652 20.4565 49.8991 20.9007 50.1901 21.6138L50.7557 23.2075H49.1429L48.8102 22.1513C48.4941 21.1445 48.2944 20.8923 47.7207 20.8923H47.3963V23.2075H45.8501V17.3525ZM47.3963 19.7852H47.804C48.3028 19.7852 48.9349 19.7681 48.9349 19.1056C48.9349 18.5607 48.3939 18.4596 47.804 18.4596H47.3963V19.7852Z" fill="white"/>
<mask id="mask0_3459_119" style="mask-type:luminance" maskUnits="userSpaceOnUse" x="3" y="14" width="50" height="13">
<path id="Clip 14" fill-rule="evenodd" clip-rule="evenodd" d="M3.19995 26.1645H52.7281V14.3999H3.19995V26.1645Z" fill="white"/>
</mask>
<g mask="url(#mask0_3459_119)">
<path id="Fill 13" fill-rule="evenodd" clip-rule="evenodd" d="M51.1816 23.2075H52.7278V17.3525H51.1816V23.2075Z" fill="white"/>
<path id="Fill 15" fill-rule="evenodd" clip-rule="evenodd" d="M13.0721 14.3999H4.97872C3.99633 14.3999 3.19995 15.2233 3.19995 16.2392V16.2586V24.3257C3.19995 25.3316 3.98166 26.1494 4.95139 26.1645H13.0678C14.0505 26.1645 14.8471 25.3411 14.8471 24.3257L14.8509 16.2392C14.8509 15.2233 14.0548 14.3999 13.0721 14.3999ZM5.94086 25.2219L5.49927 25.2267C4.9648 25.2267 4.53156 24.7837 4.53156 24.2371L4.52903 24.1592V16.6911L4.53181 16.289C4.5518 15.76 4.95012 15.3341 5.47193 15.3341H6.36954C7.18288 15.3341 7.84261 16.0477 7.84261 16.8898C7.84261 17.3059 7.68091 17.6838 7.41899 17.9585L5.12878 20.3031L7.27525 22.5083C7.5521 22.7961 7.71937 23.1745 7.71937 23.5888C7.71937 24.4909 6.92299 25.2219 5.94086 25.2219ZM12.5397 25.2145L8.53777 25.2127C8.53777 25.2127 9.00062 24.2036 9.00062 23.5791C9.00062 22.8178 8.74807 22.1373 8.35304 21.6872L6.98423 20.2794L8.38138 18.8231C8.79716 18.4286 9.0735 17.7285 9.0735 16.9311C9.0735 16.2997 8.90041 15.7403 8.62179 15.3341H9.59152C10.4051 15.3341 11.0648 16.0477 11.0648 16.8898C11.0648 17.3059 10.9034 17.6838 10.6415 17.9585L8.39505 20.2786L13.0607 25.0789C12.9129 25.1728 12.7264 25.2145 12.5397 25.2145ZM13.517 23.7157L10.1733 20.2776L11.7658 18.6446C12.0902 18.2358 12.2957 17.6197 12.2957 16.9311C12.2957 16.2956 12.1201 15.7227 11.839 15.3162L12.5518 15.3377C13.0863 15.3377 13.5195 15.7814 13.5195 16.3278L13.517 23.7157Z" fill="white"/>
</g>
</g>
</g>
</svg>
