<svg width="56" height="40" viewBox="0 0 56 40" fill="none" xmlns="http://www.w3.org/2000/svg">
<g id="DANA">
<rect id="Background" width="56" height="40" rx="4" fill="#108EE9"/>
<g id="logo">
<path id="shape" fill-rule="evenodd" clip-rule="evenodd" d="M12.0877 13.6001H11.901C10.3498 13.6328 8.82196 14.2534 7.69543 15.3212C6.37476 16.5438 5.6169 18.3256 5.6001 20.1213V20.2884C5.63183 22.0468 6.36823 23.7874 7.65063 24.997C8.7865 26.0946 10.3433 26.734 11.9234 26.7601H12.1064C14.2418 26.7358 16.297 25.5402 17.4077 23.723C18.3578 22.2166 18.65 20.322 18.2281 18.5944C17.8744 17.1038 16.9821 15.7458 15.7464 14.8386C14.6964 14.0546 13.3972 13.6244 12.0877 13.6001ZM9.18783 18.9472C9.79076 19.1236 10.4338 19.0162 11.0209 18.8268C11.3444 18.7201 11.6629 18.5982 11.9813 18.4763L11.9813 18.4763L11.9813 18.4763L11.9814 18.4763L11.9814 18.4763C12.4962 18.2792 13.0111 18.0821 13.5474 17.9494C14.2652 17.7814 15.0716 17.9168 15.6465 18.3928C15.7602 18.502 15.76 18.6599 15.7598 18.8096C15.7597 18.8466 15.7596 18.8831 15.7613 18.9182C15.7549 19.4 15.7572 19.882 15.7594 20.3639V20.364V20.364V20.3641V20.3641V20.3641C15.7628 21.0743 15.7662 21.7844 15.7417 22.4938C15.6551 22.457 15.5689 22.4179 15.4826 22.3787L15.4826 22.3787L15.4826 22.3787C15.1273 22.2174 14.7701 22.0552 14.3706 22.0477C13.5375 22.0019 12.7673 22.2784 11.9957 22.5555C11.3679 22.7809 10.739 23.0067 10.0745 23.0594C9.47156 23.1014 8.84156 22.9586 8.3525 22.5956C8.25231 22.4569 8.2573 22.2833 8.2622 22.1134C8.26419 22.0443 8.26616 21.9758 8.26103 21.9105C8.27032 21.4793 8.26621 21.0472 8.26209 20.6151C8.25546 19.9184 8.24882 19.2217 8.29836 18.5281C8.40837 18.5771 8.51423 18.6354 8.62004 18.6937L8.62005 18.6937L8.62005 18.6937L8.62006 18.6937L8.62006 18.6937C8.80242 18.7942 8.98466 18.8946 9.18783 18.9472ZM21.8409 16.8777C21.5108 16.8798 21.1807 16.8819 20.8508 16.878C20.8503 17.9858 20.8503 19.0939 20.8503 20.2021C20.8503 21.3104 20.8503 22.4187 20.8498 23.527C21.2176 23.5275 21.5851 23.5275 21.9526 23.5275C22.3201 23.5275 22.6876 23.5275 23.0553 23.528C23.5901 23.5289 24.1305 23.4262 24.6084 23.1789C25.8796 22.5554 26.616 21.0565 26.3724 19.6668C26.1708 18.2201 24.907 16.9909 23.4389 16.8929C22.9064 16.871 22.3736 16.8744 21.8409 16.8777ZM22.2399 21.5526C22.2427 20.471 22.2454 19.3894 22.2358 18.3078C22.3784 18.3122 22.5218 18.3097 22.6654 18.3072H22.6654C22.9794 18.3018 23.2938 18.2963 23.6013 18.3629C24.3676 18.5384 24.9584 19.2524 25.0125 20.0326C25.0937 20.8092 24.6429 21.6109 23.9261 21.9282C23.5376 22.1118 23.1105 22.1029 22.6879 22.0941C22.5369 22.0909 22.3865 22.0878 22.2386 22.0934L22.2399 21.5526ZM28.842 19.5669C28.8868 18.1249 30.185 16.8294 31.6448 16.8789C33.0756 16.864 34.3318 18.1314 34.3888 19.5454C34.4036 20.3577 34.4013 21.1703 34.399 21.9829V21.9831V21.9831V21.9832V21.9832C34.3976 22.4972 34.3961 23.0113 34.399 23.5252L34.3979 23.5252C33.9344 23.5261 33.4718 23.527 33.0093 23.5252C33.007 23.2873 33.0072 23.0495 33.0074 22.8117V22.8112V22.8112V22.8112V22.8112C33.0077 22.5733 33.0079 22.3356 33.0056 22.0981C32.4598 22.1008 31.9144 22.1004 31.3691 22.0999C30.9874 22.0995 30.6058 22.0992 30.2242 22.1C30.2228 22.2772 30.2235 22.4546 30.2242 22.632V22.6321V22.6321V22.6326C30.2253 22.9324 30.2265 23.2322 30.2177 23.5317C29.9097 23.5242 29.6021 23.5251 29.2946 23.5259H29.2946H29.2945H29.2945C29.1408 23.5263 28.9872 23.5267 28.8336 23.5261C28.8353 23.0462 28.834 22.5662 28.8327 22.0861C28.8305 21.2461 28.8283 20.4061 28.842 19.5669ZM30.5798 18.7848C30.2011 19.194 30.2121 19.7463 30.2227 20.2755V20.2756V20.2757V20.2758C30.2254 20.4102 30.228 20.5432 30.2242 20.672C30.5949 20.6723 30.9657 20.6721 31.3366 20.6719H31.3366H31.3367H31.3367H31.3371C31.8933 20.6716 32.4496 20.6712 33.0056 20.6729C33.0021 20.5447 33.0051 20.4124 33.0081 20.2786V20.2785V20.2784V20.2783C33.0197 19.761 33.0318 19.2223 32.6752 18.8137C32.1777 18.1604 31.095 18.1454 30.5798 18.7848ZM36.8304 19.5818C36.8714 18.3125 37.8636 17.1346 39.1226 16.9209C40.0597 16.7408 41.064 17.1094 41.6744 17.8393C42.1466 18.3592 42.3874 19.0629 42.3874 19.761C42.3893 20.5979 42.3887 21.4343 42.3881 22.2708V22.2709L42.388 22.2859C42.3877 22.6993 42.3874 23.1126 42.3874 23.5261C42.23 23.5271 42.0725 23.5265 41.9149 23.5259H41.9149H41.9149C41.611 23.5248 41.3069 23.5237 41.0033 23.5336C40.9933 22.8224 40.9949 22.111 40.9965 21.3997C40.9977 20.8524 40.999 20.3053 40.9949 19.7582C41.0024 19.2505 40.7308 18.7446 40.2865 18.4926C39.8254 18.2164 39.201 18.2574 38.7782 18.5897C38.4124 18.8632 38.208 19.3186 38.2145 19.7722C38.2124 20.4864 38.2127 21.2003 38.213 21.9142V21.9176C38.2132 22.4537 38.2134 22.9898 38.2126 23.5261C38.0434 23.5254 37.8743 23.5257 37.7051 23.526H37.7046C37.4082 23.5266 37.1118 23.5271 36.8154 23.5224C36.8253 22.8892 36.8235 22.2558 36.8217 21.6225V21.6222C36.8197 20.942 36.8178 20.2618 36.8304 19.5818ZM45.264 18.1669C45.8006 17.3306 46.7918 16.7912 47.7933 16.8864C48.9254 16.9564 49.9297 17.8188 50.2433 18.8968C50.3591 19.2607 50.3646 19.6409 50.3701 20.0208V20.0208C50.3732 20.2381 50.3763 20.4552 50.4001 20.6692V23.5186C50.0445 23.5284 49.689 23.5272 49.3334 23.526H49.3333L49.3325 23.526C49.2142 23.5256 49.096 23.5252 48.9777 23.5252C48.9771 23.3719 48.9774 23.2185 48.9776 23.0651C48.9782 22.7411 48.9788 22.4171 48.9712 22.0934C48.4082 22.102 47.8449 22.1008 47.2814 22.0996H47.2814C46.9191 22.0989 46.5568 22.0981 46.1945 22.1C46.194 22.3375 46.194 22.575 46.194 22.8127C46.194 23.0503 46.194 23.2881 46.1936 23.5261H44.8029C44.8024 22.9134 44.8024 22.3009 44.8024 21.6885C44.8024 21.0761 44.8024 20.4638 44.802 19.8516C44.7954 19.2617 44.9364 18.6625 45.264 18.1669ZM46.5426 18.7941C46.1713 19.2019 46.1823 19.7497 46.1929 20.2749V20.2751C46.1956 20.4098 46.1983 20.543 46.1945 20.672C46.8131 20.6726 47.4316 20.6724 48.0499 20.6722L48.9768 20.672C48.9726 20.5403 48.9755 20.4044 48.9785 20.2671C48.9895 19.752 49.0009 19.2169 48.6436 18.8109C48.1414 18.1566 47.0541 18.1482 46.5426 18.7941Z" fill="white"/>
</g>
</g>
</svg>
