<svg width="56" height="40" viewBox="0 0 56 40" fill="none" xmlns="http://www.w3.org/2000/svg">
<g id="GOPAY">
<rect id="Background" width="56" height="40" rx="4" fill="white"/>
<g id="logo">
<path id="Combined Shape" fill-rule="evenodd" clip-rule="evenodd" d="M9.02925 15.3181C9.56035 15.2315 10.1052 15.2416 10.6388 15.2949C11.1336 15.3971 11.6327 15.5112 12.0866 15.74C13.0052 16.1783 13.7871 16.8888 14.3082 17.7635C14.7402 18.5717 15.0374 19.4784 14.9929 20.4045C15.0054 22.3056 13.8009 24.1171 12.0948 24.9254C10.9887 25.4514 9.70205 25.5236 8.52011 25.2351C7.72065 24.9893 6.9494 24.5918 6.3669 23.9811C5.81198 23.4663 5.39312 22.8104 5.12726 22.1044C4.78052 21.2359 4.74917 20.2703 4.89652 19.3555C5.16614 17.9967 6.00573 16.7508 7.19394 16.0285C7.74698 15.6642 8.38279 15.4479 9.02925 15.3181ZM8.31946 17.7578C7.91941 17.7986 7.48238 17.939 7.26104 18.3002C7.01651 18.6461 6.99099 19.0788 6.96675 19.4899L6.96069 19.5906C6.9557 19.6943 6.94645 19.7979 6.93719 19.9014V19.9014C6.91851 20.1104 6.89982 20.3195 6.91617 20.5299C6.92836 20.672 6.93696 20.8146 6.94556 20.9572C6.96706 21.3135 6.98856 21.67 7.06603 22.0197C7.16197 22.4605 7.55887 22.8023 7.99654 22.8825C8.81222 23.0296 9.64316 23.0166 10.4691 23.0038L10.6959 23.0004C11.0339 22.9816 11.3718 22.9471 11.706 22.8938C12.2064 22.8286 12.6485 22.421 12.7306 21.9194C12.8742 21.3043 12.8999 20.6697 12.8573 20.0421C12.777 19.6395 12.4923 19.2765 12.1054 19.1291C11.9311 19.0449 11.7378 19.0454 11.5482 19.0459C11.5147 19.046 11.4814 19.0461 11.4483 19.0457C11.0753 19.0462 10.7023 19.046 10.3293 19.0458H10.3292C9.6765 19.0454 9.02388 19.045 8.3715 19.0482C8.2965 19.0496 8.22651 19.024 8.15713 18.9986C8.13139 18.9891 8.10573 18.9797 8.07993 18.9717C8.07805 18.8313 8.08307 18.6212 8.2718 18.6175C8.76324 18.6064 9.25513 18.6096 9.74699 18.6129H9.74702C10.3948 18.6172 11.0426 18.6215 11.6891 18.593C11.6189 18.267 11.4201 17.9265 11.0778 17.8362C10.7686 17.7534 10.4488 17.7114 10.1309 17.682C10.0403 17.6808 9.94945 17.6791 9.85856 17.6773C9.34358 17.6675 8.82631 17.6576 8.31946 17.7578ZM11.8208 20.4967C11.6559 20.4522 11.4584 20.5174 11.4007 20.6873C11.3645 20.8829 11.4225 21.0714 11.4801 21.2586C11.5043 21.3372 11.5285 21.4156 11.5455 21.4943C11.5643 21.5052 11.5925 21.5215 11.6207 21.5378C11.649 21.5541 11.6772 21.5705 11.696 21.5814C11.7606 21.5438 11.8264 21.51 11.8948 21.4805C11.9022 21.315 11.942 21.1558 11.9819 20.9968C11.9996 20.9262 12.0172 20.8556 12.0321 20.7845C12.0014 20.6672 11.9242 20.56 11.8208 20.4967Z" fill="#01ACD7"/>
<path id="Combined Shape_2" fill-rule="evenodd" clip-rule="evenodd" d="M21.4348 16.8804C20.9514 16.691 20.4147 16.7124 19.908 16.7751C18.812 16.9444 17.8501 17.7808 17.5253 18.8411C17.378 19.2612 17.3811 19.7146 17.42 20.1529C17.551 21.274 18.3944 22.2584 19.4647 22.6014C20.2234 22.8309 21.0987 22.8384 21.7991 22.4277C21.8906 22.3771 21.9737 22.3146 22.0568 22.2521C22.1343 22.1937 22.2119 22.1353 22.2964 22.0866L22.2977 22.1449C22.308 22.607 22.3198 23.1297 21.9691 23.4786C21.7339 23.7658 21.3784 23.9169 21.0191 23.9721C20.2422 24.1144 19.4208 23.8492 18.8433 23.3175C18.715 23.4482 18.5805 23.5731 18.446 23.698C18.2284 23.9001 18.0108 24.1022 17.8194 24.3289C18.4239 24.9007 19.1895 25.3133 20.0196 25.423C20.831 25.5252 21.7038 25.4757 22.4268 25.0587C23.04 24.7182 23.5228 24.137 23.7122 23.4592C23.8297 23.1214 23.8281 22.7606 23.8266 22.4076L23.8263 22.3481C23.8257 20.4789 23.8257 18.6104 23.8263 16.7412C23.5325 16.7376 23.2387 16.7377 22.9449 16.7379C22.7327 16.738 22.5205 16.7381 22.3083 16.7368L22.309 16.8908C22.3099 17.0577 22.3109 17.2246 22.307 17.3914C22.0456 17.1776 21.7565 16.9889 21.4348 16.8804ZM19.5092 18.5094C19.7607 18.2862 20.0943 18.2009 20.4197 18.1526C21.0674 18.0542 21.796 18.3508 22.1277 18.9308C22.2615 19.1658 22.2559 19.4314 22.2504 19.6945V19.6945V19.6945V19.6945V19.6945C22.2485 19.7866 22.2465 19.8784 22.2506 19.9685C22.3052 20.5215 21.8744 21.0094 21.3809 21.1975C20.7846 21.422 20.0491 21.437 19.5287 21.0225C18.7487 20.4375 18.733 19.1026 19.5092 18.5094ZM34.7567 16.7381C34.1083 16.7337 33.4324 16.9274 32.9652 17.3952C32.9611 17.3354 32.9572 17.2757 32.9533 17.216C32.9466 17.1131 32.9399 17.0104 32.932 16.908C32.4216 16.9017 31.9112 16.8998 31.4008 16.908C31.4015 18.4555 31.4014 20.003 31.4013 21.5505C31.4012 22.7111 31.4012 23.8717 31.4014 25.0324C31.7601 25.0555 32.1196 25.0535 32.479 25.0515H32.479H32.479H32.479H32.479H32.479H32.4791H32.4791H32.4791C32.6462 25.0505 32.8133 25.0496 32.9803 25.0512C32.992 24.3343 32.9894 23.617 32.9868 22.8997V22.8997V22.8996V22.8996V22.8994C32.9859 22.6544 32.985 22.4094 32.9847 22.1644C34.1108 23.0591 35.9035 22.9607 36.9161 21.9342C38.0184 20.8288 38.0818 18.8587 37.0202 17.7049C36.4615 17.0629 35.6038 16.708 34.7567 16.7381ZM33.0587 19.0656C33.2236 18.5696 33.7277 18.2737 34.2174 18.1765C34.7222 18.0743 35.2865 18.2015 35.6765 18.5452C36.3374 19.1458 36.3424 20.3002 35.7191 20.9291C35.094 21.5342 33.9879 21.5229 33.3665 20.9178C33.1019 20.6839 32.9634 20.3178 32.9866 19.9679C32.9917 19.8757 32.9893 19.7821 32.9868 19.6884V19.6884V19.6884V19.6883V19.6883C32.9812 19.4763 32.9756 19.2639 33.0587 19.0656ZM26.8223 16.8152C27.7133 16.6359 28.6883 16.7437 29.4639 17.2397C30.054 17.5958 30.5029 18.1733 30.7036 18.8323C30.9788 19.6983 30.8553 20.689 30.3399 21.4426C29.8276 22.202 28.9529 22.6672 28.05 22.7544C27.4938 22.792 26.9188 22.7732 26.3927 22.5707C25.5212 22.2778 24.7901 21.5586 24.533 20.6701C24.2571 19.8375 24.385 18.8844 24.8578 18.147C25.2954 17.4573 26.0291 16.9864 26.8223 16.8152ZM27.1953 18.1846C26.9734 18.2479 26.7658 18.3583 26.584 18.4994C25.9544 18.9954 25.8008 19.976 26.2492 20.6401C26.7614 21.4847 28.0832 21.6514 28.7767 20.9442C29.1159 20.6325 29.2771 20.1673 29.2319 19.7114C29.2702 18.7007 28.149 17.8861 27.1953 18.1846ZM41.7505 16.7757C40.8382 16.6559 39.85 16.7832 39.0932 17.3406C38.6561 17.688 38.2824 18.1658 38.2084 18.7339C38.4263 18.7712 38.6424 18.8183 38.8585 18.8655L38.8585 18.8655C39.14 18.9268 39.4215 18.9882 39.707 19.028C39.8306 18.532 40.2607 18.1376 40.7655 18.0561C41.0921 17.9996 41.432 18.0166 41.7499 18.1131C42.0277 18.2034 42.239 18.5075 42.1173 18.7972C41.8907 19.0038 41.5825 19.0663 41.2889 19.1258C41.251 19.1335 41.2133 19.1411 41.1762 19.149L41.0233 19.1707C40.2779 19.276 39.503 19.3854 38.8687 19.8161C38.0843 20.3648 38.0812 21.6558 38.8066 22.2553C39.4054 22.7701 40.2488 22.829 41 22.7293C41.5198 22.6321 42.0433 22.407 42.375 21.9788C42.3769 22.0844 42.3769 22.1901 42.3769 22.2958C42.3769 22.4015 42.3769 22.5073 42.3788 22.6133C42.4932 22.6132 42.6077 22.6128 42.7223 22.6124C43.0852 22.6113 43.4485 22.6101 43.8122 22.6158C43.8136 21.9074 43.8134 21.1993 43.8132 20.4912C43.813 19.9602 43.8129 19.4292 43.8134 18.8982C43.8191 18.4674 43.6617 18.0479 43.4247 17.693C43.0397 17.1525 42.3863 16.8798 41.7505 16.7757ZM39.7766 21.0671C39.6939 20.8708 39.8538 20.677 40.0136 20.5805C40.3361 20.4028 40.6991 20.3365 41.0614 20.2703C41.4979 20.1905 41.9335 20.111 42.296 19.8368C42.2926 19.9229 42.2953 20.013 42.2981 20.1044V20.1045C42.3075 20.413 42.3174 20.7358 42.091 20.9661C41.6533 21.4025 40.9868 21.4828 40.398 21.4452C40.1535 21.4307 39.8318 21.3461 39.7766 21.0671ZM44.4433 16.9036C44.2747 16.9039 44.1062 16.9042 43.9376 16.9042C44.3824 17.8337 44.8371 18.7584 45.2918 19.6832C45.7184 20.5509 46.145 21.4187 46.5636 22.2904C46.3578 22.7427 46.1341 23.1868 45.9105 23.6308C45.674 24.1002 45.4376 24.5696 45.2224 25.0487C45.4035 25.0479 45.5848 25.0493 45.7661 25.0507C46.1691 25.0538 46.5723 25.0569 46.9749 25.0361C48.296 22.3286 49.6159 19.6211 50.9346 16.9124C50.342 16.8973 49.7501 16.8998 49.1582 16.9099C48.5901 18.157 48.0151 19.4017 47.437 20.6438C47.2666 20.2757 47.0943 19.9085 46.922 19.5412C46.6406 18.9413 46.3592 18.3414 46.0858 17.7382C46.042 17.64 45.9937 17.5437 45.9455 17.4474C45.857 17.2709 45.7686 17.0944 45.7077 16.9061C45.2862 16.9021 44.8648 16.9028 44.4433 16.9036Z" fill="#010101"/>
</g>
</g>
</svg>
