<svg width="56" height="40" viewBox="0 0 56 40" fill="none" xmlns="http://www.w3.org/2000/svg">
<g id="MANDIRI">
<rect id="Background" width="56" height="40" rx="4" fill="#003D79"/>
<g id="logo">
<g id="Logo Mandiri">
<path id="Fill 1" fill-rule="evenodd" clip-rule="evenodd" d="M4.05053 21.1851C4.05053 20.4677 4.03789 19.8657 4 19.3289H5.31469L5.37634 20.2511H5.41322C5.7112 19.7638 6.25613 19.1875 7.27259 19.1875C8.06598 19.1875 8.68568 19.6495 8.94552 20.3406H8.97103C9.18211 19.995 9.42918 19.7391 9.71402 19.5592C10.049 19.3163 10.4334 19.1875 10.9292 19.1875C11.9329 19.1875 12.9486 19.8915 12.9486 21.8891V25.5631H11.4615V22.1199C11.4615 21.083 11.115 20.4677 10.3841 20.4677C9.86269 20.4677 9.47806 20.8525 9.31802 21.3008C9.28038 21.454 9.24324 21.6461 9.24324 21.8241V25.5631H7.75562V21.9529C7.75562 21.083 7.42152 20.4677 6.71491 20.4677C6.14472 20.4677 5.76097 20.9293 5.62429 21.3637C5.56189 21.5183 5.53688 21.697 5.53688 21.8759V25.5631H4.05053V21.1851Z" fill="white"/>
<path id="Fill 3" fill-rule="evenodd" clip-rule="evenodd" d="M18.7428 24.0659C18.7428 24.6289 18.7676 25.1784 18.8296 25.5636H17.4534L17.3546 24.8725H17.3169C16.9453 25.3594 16.3132 25.7045 15.5325 25.7045C14.3176 25.7045 13.6362 24.7963 13.6362 23.8484C13.6362 22.2732 14.9867 21.4802 17.2178 21.4928V21.39C17.2178 20.9802 17.0565 20.3021 15.9908 20.3021C15.3956 20.3021 14.7756 20.4943 14.3668 20.7627L14.069 19.7394C14.516 19.4572 15.2975 19.188 16.2511 19.188C18.1854 19.188 18.7428 20.4562 18.7428 21.8126V24.0659ZM17.2549 22.517C16.1768 22.4912 15.1484 22.7344 15.1484 23.6819C15.1484 24.2958 15.5325 24.578 16.016 24.578C16.6226 24.578 17.0695 24.1682 17.2054 23.7203C17.2423 23.605 17.2549 23.4765 17.2549 23.3745V22.517Z" fill="white"/>
<path id="Fill 5" fill-rule="evenodd" clip-rule="evenodd" d="M19.7966 21.1851C19.7966 20.4677 19.783 19.8657 19.7468 19.3289H21.0843L21.159 20.2634H21.1957C21.4563 19.7775 22.1131 19.1875 23.1168 19.1875C24.1707 19.1875 25.2613 19.8915 25.2613 21.8635V25.5631H23.737V22.0432C23.737 21.1464 23.4148 20.4677 22.5843 20.4677C21.9769 20.4677 21.5557 20.9159 21.3941 21.3898C21.3454 21.5309 21.3325 21.7234 21.3325 21.9014V25.5631H19.7966V21.1851Z" fill="white"/>
<path id="Fill 7" fill-rule="evenodd" clip-rule="evenodd" d="M31.8707 16.8242V23.8091C31.8707 24.4491 31.8951 25.1417 31.92 25.5636H30.5565L30.4955 24.578H30.4702C30.1106 25.2697 29.3782 25.7045 28.4992 25.7045C27.0621 25.7045 25.9215 24.4374 25.9215 22.5171C25.9088 20.4301 27.173 19.188 28.623 19.188C29.4531 19.188 30.0486 19.5469 30.3208 20.0082H30.3459V16.8242H31.8707ZM30.3459 21.9272C30.3459 21.8005 30.3332 21.6461 30.3093 21.5185C30.1728 20.904 29.6891 20.4044 28.995 20.4044C28.0159 20.4044 27.4705 21.301 27.4705 22.466C27.4705 23.6051 28.0159 24.4374 28.9826 24.4374C29.6021 24.4374 30.1478 24.0022 30.2963 23.3239C30.3332 23.1825 30.3459 23.029 30.3459 22.862V21.9272Z" fill="white"/>
<path id="Fill 9" fill-rule="evenodd" clip-rule="evenodd" d="M32.9478 25.5634H34.4862V19.3296H32.9478V25.5634Z" fill="white"/>
<path id="Fill 11" fill-rule="evenodd" clip-rule="evenodd" d="M35.5636 21.3389C35.5636 20.4943 35.5507 19.8918 35.5137 19.329H36.8401L36.8886 20.5192H36.94C37.237 19.6359 37.9436 19.329 38.5878 19.329C38.7362 19.329 38.8229 19.3028 38.9472 19.329V20.7121C38.8229 20.6865 38.6869 20.6609 38.5009 20.6609C37.7698 20.6609 37.2736 21.1469 37.1375 21.8506C37.1133 21.9915 37.0883 22.1586 37.0883 22.3387V25.5636H35.5636V21.3389Z" fill="white"/>
<path id="Fill 12" fill-rule="evenodd" clip-rule="evenodd" d="M39.6538 25.5634H41.1899V19.3296H39.6538V25.5634Z" fill="white"/>
</g>
<path id="Flag" fill-rule="evenodd" clip-rule="evenodd" d="M39.2902 11.7919C38.3675 12.3438 36.1911 13.6332 35.3786 14.1133C34.8834 14.3739 33.7366 14.4876 33.088 13.5842C33.0764 13.5679 32.2253 12.4695 32.1905 12.4281C32.1661 12.3989 31.6159 11.5559 30.3899 11.5295C30.2087 11.5251 29.3081 11.5201 28.4293 12.036C27.2613 12.7253 24.5448 14.3295 24.5448 14.3295C24.544 14.3295 24.544 14.3309 24.5426 14.3309C23.426 14.9909 22.5559 15.5047 22.5559 15.5047L23.5839 16.8088C24.0648 17.4255 25.1492 17.9027 26.0896 17.345C26.0896 17.345 29.5644 15.2666 29.5772 15.2606C31.0799 14.4092 32.2395 14.4092 33.0092 14.726C33.7 15.0275 34.301 15.7788 34.301 15.7788C34.301 15.7788 35.0864 16.7842 35.225 16.9601C35.6719 17.5283 36.4116 17.3051 36.4116 17.3051C36.4116 17.3051 36.6857 17.273 37.0989 17.0196C37.0989 17.0196 40.4647 15.0038 40.4669 15.0031C41.5356 14.3555 42.5158 14.2345 43.0168 14.2821C44.5859 14.4294 45.0733 15.5617 45.7537 16.3516C46.1544 16.8162 46.5159 17.08 47.0687 17.0667C47.432 17.0588 47.8424 16.8312 47.9029 16.7901L51.9334 14.3876C51.9334 14.3876 51.5199 13.7442 50.6729 12.7432C49.9149 11.8501 49.1098 12.2542 48.4678 12.5826C48.1981 12.7204 47.221 13.3918 46.2529 13.8602C45.5631 14.1938 44.5722 14.0935 44.0292 13.4004C43.9967 13.3583 43.1182 12.2597 43.0259 12.1245C42.6713 11.6657 41.9795 11.2549 41.0929 11.2549C40.5538 11.2549 39.942 11.4068 39.2902 11.7919Z" fill="url(#paint0_linear_3459_730)"/>
</g>
</g>
<defs>
<linearGradient id="paint0_linear_3459_730" x1="22.5559" y1="17.592" x2="51.9334" y2="17.592" gradientUnits="userSpaceOnUse">
<stop stop-color="#FFCA06"/>
<stop offset="0.330844" stop-color="#FBAA18"/>
<stop offset="0.694742" stop-color="#FFC907"/>
<stop offset="1" stop-color="#FAA619"/>
</linearGradient>
</defs>
</svg>
