<svg width="56" height="40" viewBox="0 0 56 40" fill="none" xmlns="http://www.w3.org/2000/svg">
<g id="MASTERCARD">
<rect id="Background" width="56" height="40" rx="4" fill="#262626"/>
<g id="logo">
<g id="group" opacity="0.01">
<rect id="Rectangle" x="12" y="9.6001" width="31.8521" height="20.7761" fill="white"/>
</g>
<rect id="Rectangle_2" x="23.7261" y="13.2197" width="8.40242" height="13.5343" fill="#FF5F00"/>
<path id="Path" fill-rule="evenodd" clip-rule="evenodd" d="M24.5915 19.9882C24.5894 17.3475 25.8186 14.8526 27.9249 13.2222C24.3466 10.4489 19.2081 10.8528 16.1206 14.1502C13.033 17.4475 13.033 22.5312 16.1206 25.8285C19.2081 29.1259 24.3466 29.5298 27.9249 26.7565C25.8179 25.1256 24.5887 22.6296 24.5915 19.9882Z" fill="#EB001B"/>
<path id="Shape" fill-rule="evenodd" clip-rule="evenodd" d="M41.2289 25.1037V25.6661H41.1703V25.1037H41.0449V24.9873H41.3623V25.1037H41.2289ZM41.8449 24.9873V25.6661H41.7783V25.1522L41.6743 25.5934H41.6023L41.4983 25.1522V25.6661H41.4289V24.9873H41.5249L41.6369 25.4722L41.7489 24.9873H41.8449Z" fill="#F79E1B"/>
<path id="Path_2" fill-rule="evenodd" clip-rule="evenodd" d="M42.046 19.9881C42.0459 23.2834 40.138 26.2894 37.1325 27.7295C34.127 29.1695 30.5516 28.7907 27.9248 26.754C30.0302 25.1223 31.2594 22.6277 31.2594 19.9869C31.2594 17.3461 30.0302 14.8515 27.9248 13.2197C30.5516 11.183 34.127 10.8042 37.1325 12.2443C40.138 13.6843 42.0459 16.6903 42.046 19.9857V19.9881Z" fill="#F79E1B"/>
</g>
</g>
</svg>
