<svg width="56" height="40" viewBox="0 0 56 40" fill="none" xmlns="http://www.w3.org/2000/svg">
<g id="MAYBANK">
<rect id="Background" width="56" height="40" rx="4" fill="#FFCE4C"/>
<g id="logo">
<path id="Fill 1" fill-rule="evenodd" clip-rule="evenodd" d="M19.0689 22.9864L20.469 19.1571L20.9269 22.9864H22.4059L21.6049 17.3623H19.7999L18.6045 20.7408L17.4093 17.3623H15.6043L14.803 22.9864H16.2824L16.7399 19.1571L18.1403 22.9864H19.0689Z" fill="#231F20"/>
<path id="Fill 2" fill-rule="evenodd" clip-rule="evenodd" d="M30.5549 18.8042L29.5518 21.7291L28.5343 18.8042H26.8442L28.7461 22.9865L27.9928 24.6273H29.6308L32.2455 18.8042H30.5549Z" fill="#231F20"/>
<path id="Fill 3" fill-rule="evenodd" clip-rule="evenodd" d="M47.1438 16.8984V22.9813H48.6761V20.8633L50.2474 22.9813H51.9906L50.2609 20.7453L51.8363 18.8038H50.0758L48.6761 20.6303V16.8984H47.1438Z" fill="#231F20"/>
<g id="group">
<path id="Fill 4" fill-rule="evenodd" clip-rule="evenodd" d="M34.0507 22.0161V19.8161C34.3611 19.7113 35.4855 19.4299 35.4855 20.8592C35.4855 22.3159 34.332 22.0925 34.0507 22.0161ZM32.4919 22.7707C32.4919 22.7707 33.3022 23.0742 34.4381 23.0742C35.5737 23.0742 37.0528 22.7209 37.0528 20.7628C37.0528 18.8038 35.0897 18.7332 34.8606 18.7332C34.4283 18.7332 34.1521 18.851 34.0507 18.9031V16.8892H32.4919V22.7707Z" fill="#231F20"/>
<path id="Fill 6" fill-rule="evenodd" clip-rule="evenodd" d="M38.6732 21.6979C38.6732 21.0968 39.8131 21.0539 40.1264 21.0536V22.1241C39.8002 22.1633 38.6732 22.2563 38.6732 21.6979ZM37.8894 19.863C40.1258 19.2012 40.1264 19.9958 40.1264 20.1012V20.2432C38.3162 20.2585 37.2378 20.7766 37.2378 21.7157C37.2378 22.6685 38.2418 23.0832 39.5714 23.0832C40.901 23.0832 41.5788 22.7741 41.5788 22.7741V20.1718C41.5788 19.2542 40.989 18.6719 39.5714 18.6719C38.1535 18.6719 37.5376 19.0074 37.5376 19.0074L37.8894 19.863Z" fill="#231F20"/>
<path id="Fill 8" fill-rule="evenodd" clip-rule="evenodd" d="M24.0396 21.6979C24.0396 21.0968 25.1796 21.0539 25.4923 21.0536V22.1241C25.1664 22.1633 24.0396 22.2563 24.0396 21.6979ZM23.2558 19.863C25.4923 19.2012 25.4923 19.9958 25.4923 20.1012V20.2432C23.6827 20.2585 22.6042 20.7766 22.6042 21.7157C22.6042 22.6685 23.6082 23.0832 24.9376 23.0832C26.2672 23.0832 26.9452 22.7741 26.9452 22.7741V20.1718C26.9452 19.2542 26.3554 18.6719 24.9376 18.6719C23.52 18.6719 22.9037 19.0074 22.9037 19.0074L23.2558 19.863Z" fill="#231F20"/>
<path id="Fill 10" fill-rule="evenodd" clip-rule="evenodd" d="M45.0216 22.9776H46.5625V20.3309C46.5625 18.9545 45.5767 18.6631 44.3611 18.6631C43.1465 18.6631 42.1689 18.9983 42.1689 18.9983V22.9776H43.7101V19.8131C44.8949 19.466 45.0216 20.0363 45.0216 20.313V22.9776Z" fill="#231F20"/>
<path id="Fill 15" fill-rule="evenodd" clip-rule="evenodd" d="M6.66276 18.5329C6.66276 18.5329 6.76192 18.1424 6.9203 18.0102C7.07895 17.8777 7.64892 17.5004 8.4721 17.2358C8.57012 17.2041 8.68394 17.2404 8.68911 17.2421C8.68365 17.2746 8.68049 17.2968 8.67905 17.304C8.66813 17.3659 8.62185 17.4054 8.62185 17.4054C8.78913 17.4276 8.89922 17.3086 8.92997 17.1715C8.96101 17.0353 9.0665 16.4933 9.23838 16.5014C9.71809 16.5233 10.0616 18.0764 10.0265 18.1467C10.0032 18.1928 9.81495 18.1554 9.81495 18.1554C10.1142 18.6274 10.5059 18.6228 10.5942 18.5482C10.6821 18.4736 10.6338 18.2305 10.6338 18.2305C11.576 18.791 11.5231 19.4571 11.5231 19.4571C11.8048 18.3544 11.1535 17.882 11.1535 17.882C11.4087 17.8731 11.6861 18.0364 11.6861 18.0364C11.2897 17.5027 10.4709 17.207 10.4709 17.207C10.4709 17.207 9.51574 16.144 9.20762 16.1837C8.9521 16.2168 8.80609 16.6863 8.73452 17.0071C8.69946 17.0042 8.63249 17.0016 8.5454 17.012C8.47785 16.9279 8.19186 16.5878 8.08063 16.6998C8.03723 16.743 8.02343 17.0494 8.0197 17.1782C7.55694 17.3625 6.76968 17.709 6.60959 17.9633C6.46473 18.1951 6.43138 18.3673 6.43138 18.3673C6.43138 18.3673 5.48748 18.9759 5.2561 19.6383C5.2561 19.6383 5.89016 18.8967 6.66276 18.5329Z" fill="#231F20"/>
<g id="group_2">
<mask id="mask0_3459_653" style="mask-type:luminance" maskUnits="userSpaceOnUse" x="4" y="15" width="10" height="10">
<path id="Clip 13" fill-rule="evenodd" clip-rule="evenodd" d="M4 15.4878H13.3536V24.8604H4V15.4878Z" fill="white"/>
</mask>
<g mask="url(#mask0_3459_653)">
<path id="Fill 12" fill-rule="evenodd" clip-rule="evenodd" d="M8.67669 15.4878C6.0982 15.4878 4 17.5905 4 20.1738C4 22.7578 6.0982 24.8605 8.67669 24.8605C11.2558 24.8605 13.3537 22.7578 13.3537 20.1738C13.3537 17.5905 11.2558 15.4878 8.67669 15.4878ZM8.67669 15.8792C11.0436 15.8792 12.9628 17.8016 12.9628 20.1738C12.9628 22.5458 11.0436 24.4685 8.67669 24.4685C6.31004 24.4685 4.39119 22.5458 4.39119 20.1738C4.39119 17.8016 6.31004 15.8792 8.67669 15.8792Z" fill="#231F20"/>
</g>
</g>
<path id="Fill 17" fill-rule="evenodd" clip-rule="evenodd" d="M9.70044 18.0417C9.68694 17.5515 9.44521 17.1592 9.32162 17.1365C9.1986 17.1149 9.15894 17.582 9.15894 17.582C9.48488 17.798 9.70044 18.0417 9.70044 18.0417Z" fill="#231F20"/>
<path id="Fill 19" fill-rule="evenodd" clip-rule="evenodd" d="M7.38011 17.9531C7.1907 18.0671 7.27463 18.1645 7.27463 18.1645C7.27463 18.1645 7.24388 18.0671 7.47726 18.0012C7.89346 17.8834 8.2697 17.7627 8.2605 17.6616C8.25188 17.5603 7.9702 17.5205 7.9702 17.5205C8.04953 17.6262 7.56953 17.8382 7.38011 17.9531Z" fill="#231F20"/>
<path id="Fill 21" fill-rule="evenodd" clip-rule="evenodd" d="M7.57593 18.6011C7.63313 18.6011 7.6794 18.555 7.6794 18.4977C7.6794 18.4663 7.66532 18.4393 7.64319 18.4202C7.71188 18.4156 7.86882 18.4243 7.86882 18.4243C7.85128 18.4202 7.81162 18.4643 7.72338 18.5746C7.63543 18.6852 7.55207 18.6011 7.55207 18.6011L7.55064 18.5962C7.55868 18.5979 7.56702 18.6011 7.57593 18.6011ZM7.24367 19.0731C7.24367 19.0731 7.36237 18.7955 7.45061 18.7604C7.45061 18.7604 7.60467 18.7998 7.68831 18.7687C7.77195 18.7382 7.93032 18.5265 7.99212 18.5219C7.99212 18.5219 7.82915 19.2315 7.16865 19.2186C7.16865 19.2186 7.64434 19.4879 7.88635 19.2981C8.12865 19.1083 7.94355 18.9628 8.25626 18.6584C8.5687 18.3537 8.36204 18.341 8.34882 18.3457C8.33559 18.3497 8.23844 18.3189 8.23844 18.3189C8.23844 18.3189 8.28242 18.2616 8.37095 18.2224C8.4589 18.1821 8.96505 17.9531 8.97396 17.8154C8.98259 17.6792 8.60836 17.5249 8.41923 17.5289C8.41923 17.5289 8.59054 17.5994 8.58192 17.6968C8.57329 17.7938 8.08036 18.0101 8.08036 18.2881C8.08036 18.2881 7.90417 18.301 7.77626 18.2751C7.64865 18.248 7.51212 18.2616 7.37128 18.3537C7.23044 18.4467 7.22182 18.2397 7.23476 18.2129C7.23476 18.2129 6.96199 18.3848 7.30546 18.6054C7.30546 18.6054 7.16434 18.7512 7.15111 18.7866C7.13789 18.8217 7.0807 19.0112 7.24367 19.0731Z" fill="#231F20"/>
<path id="Fill 23" fill-rule="evenodd" clip-rule="evenodd" d="M6.808 19.9821C6.808 19.9821 6.80139 19.7307 6.57002 19.7837C6.18142 19.8724 6.04834 20.5642 6.04834 20.5642C6.48465 19.7572 6.808 19.9821 6.808 19.9821Z" fill="#231F20"/>
<path id="Fill 25" fill-rule="evenodd" clip-rule="evenodd" d="M6.95334 20.597C7.16431 20.2534 6.90707 20.0348 6.57682 20.2197C6.24685 20.4052 6.16724 20.8487 6.16724 20.8487C6.82113 20.1342 6.95334 20.597 6.95334 20.597Z" fill="#231F20"/>
<path id="Fill 27" fill-rule="evenodd" clip-rule="evenodd" d="M10.0705 20.1541C10.0705 20.1541 9.83249 19.943 9.85894 19.5519C9.88538 19.1614 9.9581 18.5733 9.29788 18.1626C9.29788 18.1626 9.56835 18.5796 9.46919 18.9897C9.37003 19.4001 9.03949 20.1003 9.06651 20.333C9.126 20.8424 9.65429 20.9352 9.61463 21.6298C9.61463 21.6298 9.92504 21.2523 9.86584 20.8093C9.80634 20.3658 9.41659 20.1737 9.58818 19.8235C9.58818 19.8235 9.78622 20.1144 10.0705 20.1541Z" fill="#231F20"/>
<path id="Fill 29" fill-rule="evenodd" clip-rule="evenodd" d="M7.06886 22.1919C7.00908 22.1726 6.95648 21.954 6.95648 21.954C7.04242 22.0237 7.21746 22.0268 7.21746 22.0268C7.13468 22.1058 7.12836 22.2117 7.06886 22.1919ZM7.72821 21.4952C7.72821 21.4952 7.93487 21.5038 7.94378 21.4687C7.95269 21.4333 7.87767 21.1905 7.87767 21.1905C7.87767 21.1905 8.13751 21.217 8.14211 21.3011C8.14642 21.3843 7.99667 21.5969 7.67964 21.7334C7.67964 21.7334 7.73712 21.5655 7.72821 21.4952ZM6.38479 21.2703C6.41324 21.2539 6.43997 21.2363 6.46441 21.217C6.52879 21.1683 6.57708 21.145 6.60955 21.1343C6.60294 21.2274 6.59748 21.3909 6.62651 21.5269C6.62651 21.5269 6.45549 21.4172 6.38479 21.2703ZM5.55758 20.423C5.45641 20.423 5.2759 20.154 5.24515 20.101C5.21439 20.0483 5.41645 19.9509 5.47854 19.9334C5.54005 19.9155 5.605 19.9305 5.61478 19.9604C5.62369 19.9861 5.48745 20.0702 5.46963 20.101C5.45209 20.1321 5.5777 20.2482 5.59724 20.2726C5.63231 20.3176 5.65904 20.423 5.55758 20.423ZM11.9715 18.3076C11.9715 18.3076 12.5489 19.8807 11.8973 21.3097C11.8973 21.3097 11.9344 21.1021 11.774 20.6925C11.6021 20.2536 11.6596 19.6866 11.73 19.5809C11.73 19.5809 11.4127 19.8982 11.4305 20.4279C11.4484 20.9566 11.5889 22.4479 10.5151 23.0037C10.5151 23.0037 10.9221 22.2581 10.77 21.3843C10.77 21.3843 10.9089 21.4379 10.9816 21.6231C10.9816 21.6231 11.2722 20.8556 10.8956 19.9155C10.8956 19.9155 11.1069 19.9556 11.2391 20.0679C11.2391 20.0679 11.3779 19.3954 10.6183 18.9231C10.4268 18.8038 10.453 18.7382 10.453 18.7382C10.453 18.7382 10.3938 18.8902 10.5191 19.0423C10.6444 19.1947 10.8166 19.4924 10.7902 19.6448C10.7902 19.6448 10.5852 19.4988 10.288 19.5388C10.288 19.5388 10.856 20.0215 10.77 21.0606C10.77 21.0606 10.6252 20.9019 10.2553 20.8357C10.2553 20.8357 10.6712 21.6167 10.3012 22.3641C10.3012 22.3641 10.2748 22.0994 10.1561 21.9338C10.1561 21.9338 10.0635 22.4833 9.40333 22.6754C9.40333 22.6754 9.93794 22.0067 9.30417 21.6697C8.67011 21.3316 8.13521 22.0796 8.02972 22.735C8.02972 22.735 7.29679 22.7875 7.22407 22.49C7.15135 22.1919 7.36261 22.066 7.36261 22.066C7.36261 22.066 7.47499 22.1389 7.73281 22.0199C7.99006 21.901 8.53157 21.5764 8.47868 21.1663C8.42579 20.7565 7.78541 20.3527 7.27667 20.5177C6.7685 20.6836 6.47763 21.1335 6.21348 21.1268C5.94934 21.1202 5.6257 20.7164 5.67226 20.5051C5.71825 20.2931 5.88984 20.2335 5.94934 19.8761C5.94934 19.8761 5.85708 19.885 5.79557 19.8452C5.73377 19.8052 5.5708 19.7393 5.48285 19.7617C5.39461 19.7836 5.17904 19.9293 5.17013 19.9026C5.16122 19.8761 5.19226 19.7168 5.19226 19.7168C5.19226 19.7168 4.95456 19.9682 4.98991 20.0702C5.02498 20.1716 5.23193 20.423 5.44749 20.5644C5.44749 20.5644 5.48745 20.8728 5.76912 21.16C5.93727 21.3313 6.0942 21.3624 6.22814 21.3336C6.28476 21.4174 6.47763 21.6703 6.78488 21.7256C6.78488 21.7256 6.73171 21.3711 6.77023 21.1032C6.78201 21.0969 6.79379 21.09 6.80357 21.0802C6.85185 21.0321 7.41549 20.5114 7.8337 21.0142C7.8337 21.0142 7.64429 21.0848 7.56955 21.3227C7.49482 21.5614 7.45085 22.1524 6.83001 21.7731C6.83001 21.7731 6.77712 22.1127 6.96654 22.316C6.96654 22.316 6.94009 22.6774 7.34939 22.8756C7.75897 23.0743 8.04524 22.9245 8.30939 23.0567C8.30939 23.0567 8.28294 22.5139 8.50714 22.1832C8.7319 21.8523 9.04893 21.742 9.20299 21.8705C9.35676 21.998 9.45391 22.4833 8.85952 22.9865C8.85952 22.9865 9.54187 23.0743 10.0086 22.7172C10.0086 22.7172 9.95058 23.3473 9.4795 23.8813C11.1865 23.5144 12.4607 21.9937 12.4607 20.1736C12.4607 19.4953 12.2828 18.8586 11.9715 18.3076Z" fill="#231F20"/>
<path id="Fill 31" fill-rule="evenodd" clip-rule="evenodd" d="M9.22933 18.4556C9.22933 18.4556 8.78468 18.2047 8.58664 18.4645C8.4001 18.7096 8.5214 19.1292 8.41189 19.3916C8.40873 19.3887 8.4047 19.3852 8.40154 19.3824C8.15493 19.1612 7.85141 19.5367 7.79392 19.6467C7.73701 19.7573 7.662 19.77 7.662 19.77C7.12049 19.8806 7.23488 19.444 7.05438 19.3118C6.87416 19.179 6.57007 19.3737 6.57007 19.3737C6.87388 19.3155 6.9443 19.5278 6.93567 19.6113C6.92676 19.6954 6.98827 19.9428 7.07191 20.0793C7.15555 20.2158 7.49471 20.1188 7.77208 20.1415C8.04945 20.1631 8.20782 20.5024 8.20782 20.5024C8.3751 20.0966 7.92614 19.9117 7.92614 19.9117C7.92614 19.9117 8.05721 19.6623 8.21213 19.7481C8.70535 20.0214 8.58204 21.1288 8.58204 21.1288C9.00686 20.3287 8.81974 19.859 8.59814 19.5845C8.62602 19.3351 8.7522 18.5483 9.22933 18.4556Z" fill="#231F20"/>
</g>
</g>
</g>
</svg>
