<svg width="56" height="40" viewBox="0 0 56 40" fill="none" xmlns="http://www.w3.org/2000/svg">
<g id="MEGA">
<rect id="Background" width="56" height="40" rx="4" fill="white"/>
<g id="logo">
<path id="Fill 4" fill-rule="evenodd" clip-rule="evenodd" d="M31.4456 25.7881L30.2136 28.214L28.9816 25.7881H27.657V31.287H29.0051V28.5378C29.0051 28.5378 29.6669 29.6973 29.7661 29.8704C29.8653 30.0435 30.0346 30.1333 30.2135 30.1333C30.3927 30.1333 30.5621 30.0435 30.6613 29.8704C30.7605 29.6973 31.4223 28.5378 31.4223 28.5378V31.287H32.7704V25.7881H31.4456Z" fill="#595A59"/>
<path id="Fill 6" fill-rule="evenodd" clip-rule="evenodd" d="M33.9014 31.2866V25.7876H37.6304V26.9927H35.2493V27.9108H37.2834V29.117H35.2493V30.083H37.6304V31.2866H33.9014Z" fill="#595A59"/>
<path id="Fill 8" fill-rule="evenodd" clip-rule="evenodd" d="M42.0823 30.7624C41.6122 31.2486 41.0883 31.3792 40.4879 31.3792C39.8485 31.3792 39.3627 31.1647 38.9626 30.7624C38.3845 30.1828 38.4076 29.3475 38.4076 28.5222C38.4076 27.6959 38.3845 26.8678 38.9626 26.2876C39.3627 25.8864 39.8264 25.6709 40.4879 25.6709C41.8968 25.6709 42.4983 26.589 42.6286 27.4932H41.2739C41.1651 27.0756 40.9492 26.8744 40.4879 26.8744C40.2413 26.8744 40.0559 26.9837 39.9563 27.1149C39.8325 27.2768 39.7561 27.518 39.7561 28.5222C39.7561 29.5256 39.8325 29.7816 39.9563 29.9437C40.0559 30.0767 40.2413 30.1755 40.4879 30.1755C40.7728 30.1755 40.9649 30.091 41.0883 29.9589C41.2425 29.8046 41.297 29.5299 41.297 29.3217V29.2442H40.4879V28.115H42.6368V28.88C42.6368 29.7699 42.4983 30.3384 42.0823 30.7624Z" fill="#595A59"/>
<path id="Fill 10" fill-rule="evenodd" clip-rule="evenodd" d="M44.9289 29.3674L45.4331 27.7749L45.9374 29.3674H44.9289ZM45.953 25.7876H44.9133L42.9185 31.2866H44.3047L44.5741 30.4677H46.2922L46.5616 31.2866H47.9479L45.953 25.7876Z" fill="#595A59"/>
<path id="Fill 12" fill-rule="evenodd" clip-rule="evenodd" d="M10.1455 28.7454H8.65082V30.7616H10.1455C10.8235 30.7616 11.2473 30.3675 11.2473 29.7495C11.2473 29.1316 10.8235 28.7454 10.1455 28.7454ZM10.0839 26.312H8.65082V28.2201H10.0839C10.6926 28.2201 11.1626 27.9188 11.1626 27.2621C11.1626 26.6054 10.6926 26.312 10.0839 26.312ZM10.1995 31.2869H8.06519V25.7866H10.1301C11.0855 25.7866 11.7481 26.3351 11.7481 27.2544C11.7481 27.8338 11.4014 28.2896 10.9391 28.4595C11.4631 28.6526 11.833 29.1084 11.833 29.765C11.833 30.7616 11.1703 31.2869 10.1995 31.2869Z" fill="#595A59"/>
<path id="Fill 14" fill-rule="evenodd" clip-rule="evenodd" d="M14.4753 26.6286L13.4429 29.5332H15.4924L14.4753 26.6286ZM16.101 31.2869L15.6618 30.0432H13.2656L12.8264 31.2869H12.2024L14.221 25.7866H14.7141L16.7251 31.2869H16.101Z" fill="#595A59"/>
<path id="Fill 16" fill-rule="evenodd" clip-rule="evenodd" d="M20.801 31.2868L17.8885 26.8758V31.2868H17.303V25.7866H17.8577L20.7702 30.1822V25.7866H21.3557V31.2868H20.801Z" fill="#595A59"/>
<path id="Fill 18" fill-rule="evenodd" clip-rule="evenodd" d="M26.0475 31.2868L24.3756 28.3591L23.2198 29.7494V31.2868H22.6343V25.7866H23.2198V28.9461L25.7779 25.7866H26.4944L24.7686 27.911L26.741 31.2868H26.0475Z" fill="#595A59"/>
<path id="Fill 20" fill-rule="evenodd" clip-rule="evenodd" d="M30.0255 8.01953L28.0066 12.5647L31.2036 19.7626L36.4186 8.01953H30.0255Z" fill="#949594"/>
<path id="Fill 22" fill-rule="evenodd" clip-rule="evenodd" d="M36.4185 8.01953H30.0254L36.225 21.9793H42.6191L36.4185 8.01953Z" fill="#595A59"/>
<path id="Fill 24" fill-rule="evenodd" clip-rule="evenodd" d="M25.9896 8.01953H19.5964L24.8113 19.7626L28.0085 12.5647L25.9896 8.01953Z" fill="#EC952D"/>
<path id="Fill 26" fill-rule="evenodd" clip-rule="evenodd" d="M19.5965 8.01953L13.396 21.9793H19.7903L25.9897 8.01953H19.5965Z" fill="#F9C623"/>
<path id="Fill 28" fill-rule="evenodd" clip-rule="evenodd" d="M28.0077 12.5649L24.8115 19.7628C25.369 20.9728 26.5912 21.8088 28.0077 21.8088C29.4241 21.8088 30.6462 20.9728 31.2036 19.7628L28.0077 12.5649Z" fill="#E3672A"/>
</g>
</g>
</svg>
