<svg width="56" height="40" viewBox="0 0 56 40" fill="none" xmlns="http://www.w3.org/2000/svg">
<g id="SHOPEEPAY">
<rect id="Background" width="56" height="40" rx="4" fill="#F0592C"/>
<g id="logo">
<path id="shape" fill-rule="evenodd" clip-rule="evenodd" d="M24.6691 10.9704C24.8889 10.9703 25.1087 10.9702 25.3285 10.9702C25.384 9.85583 25.6502 8.66467 26.4421 7.83274C27.212 7.02204 28.6358 6.97877 29.4335 7.77151C30.2826 8.59609 30.6042 9.82154 30.6638 10.9702C31.0519 10.9719 31.4402 10.971 31.8285 10.9701C32.4007 10.9688 32.973 10.9675 33.545 10.9743C33.8062 10.9604 34.0634 11.1507 34.0969 11.4144C34.1233 11.6604 34.1024 11.9072 34.0815 12.1538C34.0721 12.2647 34.0627 12.3756 34.0577 12.4863C33.8918 14.7107 33.73 16.9358 33.5682 19.1602L33.5613 19.2545C33.5205 19.7549 33.3384 20.2791 32.9327 20.5991C32.6681 20.8105 32.3244 20.8881 31.9913 20.8791C30.5645 20.8774 29.1376 20.8777 27.7109 20.8781C26.4428 20.8784 25.1749 20.8786 23.9071 20.8775C23.445 20.893 22.9772 20.6677 22.7372 20.266C22.4694 19.853 22.4416 19.3599 22.4146 18.88C22.4092 18.785 22.4039 18.6905 22.3968 18.5972C22.3285 17.6727 22.2611 16.7481 22.1938 15.8236C22.0969 14.4933 22.0001 13.1631 21.9004 11.8332C21.8995 11.8166 21.8986 11.7998 21.8977 11.7828C21.8858 11.5681 21.8726 11.3293 22.0277 11.1613C22.1811 10.9751 22.4379 10.9718 22.661 10.969C22.6707 10.9689 22.6803 10.9687 22.6899 10.9686C23.35 10.9711 24.0096 10.9708 24.6691 10.9704ZM28.3207 7.93071C27.7133 7.77478 27.0667 8.09481 26.723 8.59773C26.2405 9.28679 26.0935 10.1457 26.0323 10.9678C27.3418 10.9719 28.6513 10.9719 29.9601 10.9678C29.8882 10.224 29.7486 9.46721 29.3796 8.80918C29.1502 8.40179 28.7877 8.0393 28.3207 7.93071ZM27.5924 12.6823C26.923 12.7958 26.3368 13.3428 26.2331 14.022C26.1629 14.4768 26.3703 14.9389 26.7132 15.2344C27.1132 15.6037 27.6369 15.7691 28.1467 15.9302C28.2049 15.9486 28.263 15.9669 28.3207 15.9855C28.8024 16.1578 29.3118 16.397 29.5845 16.8534C29.8041 17.2191 29.7527 17.7188 29.4653 18.0331C29.1551 18.3768 28.6807 18.5238 28.2309 18.5548C27.5541 18.5785 26.8985 18.3245 26.3466 17.9457C26.2228 17.8352 26.1199 17.9495 26.0332 18.0459L26.0332 18.0459C26.013 18.0684 25.9936 18.0899 25.9751 18.1074C26.3605 18.5531 26.9344 18.7817 27.4961 18.9107C28.2015 19.0618 28.9983 18.9981 29.5935 18.5613C30.1585 18.1482 30.316 17.331 30.0564 16.7015C29.8449 16.2231 29.378 15.9218 28.9126 15.7251C28.7118 15.6365 28.4975 15.566 28.2822 15.4952L28.2822 15.4952L28.2822 15.4952C27.7492 15.3199 27.2104 15.1426 26.8568 14.685C26.5074 14.2425 26.7409 13.5877 27.1777 13.3003C27.701 12.9345 28.3925 13.0129 28.9583 13.2293C29.0528 13.2596 29.1422 13.3045 29.2315 13.3494C29.3611 13.4146 29.4905 13.4797 29.6351 13.4995C29.8041 13.435 29.8245 13.1934 29.6645 13.1076C29.0702 12.6986 28.2986 12.5582 27.5924 12.6823Z" fill="white"/>
<path id="shape_2" fill-rule="evenodd" clip-rule="evenodd" d="M6.493 26.4303C6.90189 26.8207 7.42423 27.0078 7.94607 27.1947C8.47168 27.3829 8.99678 27.571 9.4049 27.9664C9.77594 28.2796 9.8175 28.851 9.60675 29.2665C9.33366 29.7311 8.7593 29.9077 8.25023 29.9285C7.40872 29.9314 6.67852 29.4595 6.00917 29.0038C5.99072 29.0192 5.97098 29.0352 5.95052 29.0518C5.73395 29.2275 5.43558 29.4695 5.71085 29.7326C6.80615 30.7373 8.68954 31.1544 9.91693 30.1555C10.7941 29.4506 10.757 28.0243 9.90951 27.3119C9.50138 26.886 8.96335 26.6995 8.42488 26.5129C7.97645 26.3574 7.52772 26.2019 7.15345 25.9079C6.53456 25.4805 6.821 24.4015 7.52597 24.2427C8.24281 24.0023 8.98043 24.2664 9.62456 24.584C10.0564 24.826 10.334 24.0616 9.94513 23.8642C9.10659 23.3077 7.95192 23.1355 7.02284 23.5615C5.96316 24.0156 5.60399 25.6437 6.493 26.4303ZM11.171 29.8424L11.1718 29.9178C11.1739 30.1368 11.1761 30.3584 11.22 30.5741C11.3833 30.7818 11.7884 30.8071 11.9235 30.5577C12.036 30.1582 12.0129 29.7241 11.99 29.2911C11.9547 28.6273 11.9196 27.966 12.3732 27.4351C12.8778 26.7657 14.175 26.8192 14.451 27.6696C14.5423 28.1712 14.5286 28.681 14.5149 29.1911C14.5025 29.6514 14.4901 30.1118 14.5549 30.5666C14.7746 30.8754 15.3934 30.7344 15.3237 30.3173C15.3311 29.5159 15.3371 28.7144 15.3311 27.913C15.3385 26.9468 14.4035 26.1246 13.4551 26.1602C12.9164 26.1083 12.4326 26.3695 11.9844 26.6307C11.9839 26.3269 11.9873 26.0229 11.9907 25.7187V25.7187V25.7186V25.7185V25.7185V25.7184V25.7183V25.7183C11.998 25.0625 12.0054 24.4063 11.974 23.7514C11.9844 23.5036 11.7884 23.2765 11.5258 23.3418C11.2111 23.3136 11.174 23.6802 11.1755 23.9117C11.1729 24.7684 11.174 25.625 11.175 26.4816V26.4818C11.1764 27.602 11.1778 28.7222 11.171 29.8424ZM36.9253 30.8917L36.9263 30.8916L36.9265 30.8916L36.9267 30.8916L36.9269 30.8916L36.9271 30.8916L36.9273 30.8916L36.9275 30.8916L36.9277 30.8916C37.0935 30.8898 37.2594 30.8879 37.4257 30.8857C37.5034 30.3875 37.5912 29.8917 37.6789 29.396L37.6789 29.3959C37.7302 29.106 37.7815 28.8162 37.8308 28.5259C37.9595 28.5238 38.0883 28.5234 38.2171 28.5229C38.6294 28.5215 39.0422 28.5201 39.4515 28.4636C40.5854 28.29 41.5783 27.1828 41.3913 26.0059C41.2889 25.2757 40.5914 24.7651 39.8834 24.7325C39.4561 24.7163 39.0288 24.7195 38.6015 24.7226C38.2422 24.7253 37.8829 24.7279 37.5236 24.7191C37.3123 25.8869 37.1053 27.0551 36.8982 28.2236C36.7402 29.1149 36.5823 30.0062 36.4224 30.8976C36.5899 30.8954 36.7575 30.8935 36.9253 30.8917ZM38.1993 26.4845L38.1997 26.4828C38.2484 26.2112 38.2972 25.9398 38.3473 25.669C38.5189 25.6755 38.6928 25.6702 38.8669 25.6649C39.2441 25.6535 39.6229 25.6419 39.9843 25.7506C40.5587 26.0059 40.4771 26.8459 40.0674 27.2199C39.6623 27.6206 39.1045 27.5989 38.5633 27.5778C38.3709 27.5703 38.1806 27.5629 38 27.5746C38.0687 27.2116 38.134 26.8481 38.1993 26.4849L38.1993 26.4845ZM16.6164 29.9522C16.0257 29.2576 15.8699 28.1935 16.3374 27.3921C16.652 26.8281 17.2219 26.4407 17.8349 26.2626C18.9851 25.9272 20.2867 26.7034 20.6266 27.8328C20.7898 28.4725 20.7201 29.1953 20.3342 29.7444C19.5535 30.9763 17.5306 31.0846 16.6164 29.9522ZM19.8192 28.9489C20.2481 27.9189 19.135 26.7702 18.0857 27.0655C17.0468 27.2006 16.4813 28.5779 17.2041 29.3675C17.872 30.2965 19.4704 30.0294 19.8192 28.9489ZM21.9237 26.2389C21.6477 26.1231 21.3627 26.4526 21.4146 26.7227C21.4039 27.6693 21.4058 28.6159 21.4078 29.5627V29.5628V29.5629V29.563V29.5631V29.5632V29.5636V29.5637C21.4096 30.4514 21.4114 31.3392 21.4028 32.2274C21.4068 32.2943 21.4065 32.3632 21.4062 32.4328C21.4054 32.6475 21.4045 32.868 21.5289 33.0496C21.7605 33.1431 22.2146 33.1788 22.2176 32.8285C22.2581 32.2321 22.2481 31.6336 22.2382 31.0355V31.0354V31.0354V31.0354V31.0353V31.0353V31.0351V31.0349V31.0348V31.0346V31.0344C22.2336 30.7562 22.229 30.478 22.2294 30.2001C23.3144 31.052 25.1473 30.8917 25.8433 29.6242C26.5543 28.5052 25.9932 26.8904 24.7762 26.4021C23.9644 25.9791 22.9789 26.2166 22.2918 26.7702C22.2634 26.7181 22.2434 26.6539 22.2229 26.5883C22.1717 26.4242 22.1178 26.2516 21.9237 26.2389ZM23.1852 27.162C23.8902 26.8652 24.8089 27.0982 25.1621 27.8106C25.6341 28.5289 25.171 29.5366 24.4052 29.8201C23.6379 30.1867 22.6495 29.7236 22.3942 28.9252C22.1063 28.244 22.5426 27.4484 23.1852 27.162ZM30.7336 30.3574C29.855 30.9035 28.635 30.9778 27.749 30.4034C26.5454 29.504 26.5914 27.4113 27.8173 26.5535C28.7864 25.8619 30.3819 26.1914 30.8613 27.3208C31.0275 27.729 31.1358 28.2068 30.9755 28.6343C30.8382 28.7305 30.6703 28.7349 30.5077 28.7391C30.4646 28.7402 30.422 28.7413 30.3804 28.7441C30.0663 28.7457 29.7521 28.7442 29.4378 28.7427C28.8461 28.7399 28.2542 28.7371 27.6629 28.7545C27.688 28.8167 27.7119 28.8813 27.7362 28.9468C27.8623 29.2877 27.9967 29.6511 28.3516 29.8068C29.0046 30.1125 29.7556 29.9299 30.3938 29.6732C30.7722 29.461 31.1061 30.1689 30.7336 30.3574ZM29.6591 27.162C29.2925 27.0106 28.871 27.0077 28.4926 27.113C28.1649 27.2043 27.9964 27.5064 27.8395 27.7874C27.8103 27.8399 27.7814 27.8917 27.752 27.9412C28.5801 27.9545 29.4098 27.9531 30.2394 27.9412C30.2104 27.8867 30.183 27.8297 30.1552 27.7721C30.0379 27.5289 29.916 27.276 29.6591 27.162ZM32.5947 30.3188C33.46 30.9911 34.7408 30.9154 35.6566 30.3826C36.0632 30.1733 35.7026 29.3986 35.2914 29.691C34.6889 29.9403 33.9854 30.0858 33.3606 29.835C32.9638 29.6802 32.8099 29.278 32.668 28.9072C32.648 28.8549 32.6283 28.8033 32.6081 28.753C33.2162 28.7368 33.8244 28.74 34.4325 28.7431C34.7149 28.7446 34.9972 28.7461 35.2796 28.7456C35.3265 28.7425 35.3749 28.7417 35.4239 28.7408C35.6105 28.7376 35.8046 28.7342 35.9504 28.6061C36.1166 27.9857 35.8955 27.3045 35.4963 26.8192C34.772 26.0771 33.4838 25.9762 32.6675 26.6292C31.5855 27.5093 31.5366 29.3986 32.5947 30.3188ZM32.709 27.9442C32.9153 27.4366 33.3398 26.9676 33.9424 27.0418C34.542 26.9631 35.0317 27.3831 35.1846 27.9427C34.3594 27.9531 33.5342 27.9516 32.709 27.9442ZM44.0079 27.3579C43.3919 26.9527 42.6321 27.2911 42.1274 27.7156L41.5353 27.1947C42.0295 26.7598 42.6232 26.4036 43.297 26.3621C43.8743 26.3279 44.554 26.3858 44.9592 26.8533C45.262 27.1679 45.3109 27.6444 45.2412 28.0584C45.1292 28.7667 44.9999 29.4717 44.8705 30.1771C44.8266 30.4162 44.7828 30.6553 44.7396 30.8946L44.7392 30.8946C44.4188 30.8932 44.0983 30.8917 43.7793 30.8917L43.8921 30.3752C43.2732 30.9971 42.2417 31.2924 41.464 30.7908C40.7309 30.298 40.8897 29.1686 41.4982 28.6402C42.2477 27.9367 43.3801 27.9902 44.3017 28.2618C44.2913 28.1893 44.2876 28.1107 44.2839 28.0306C44.2717 27.7698 44.2588 27.493 44.0079 27.3579ZM44.1622 29.0484C43.5849 28.8168 42.871 28.6595 42.3159 29.0291C41.939 29.268 41.7965 29.9225 42.267 30.1451C43.0847 30.5013 43.9292 29.8201 44.1622 29.0484ZM46.1143 27.8263C45.9984 27.3854 45.8826 26.9446 45.7651 26.5045H46.85C46.9637 26.9586 47.072 27.414 47.1804 27.8694C47.3068 28.4009 47.4333 28.9325 47.5683 29.4624C47.9735 28.8457 48.3413 28.2069 48.709 27.5681C48.9139 27.2123 49.1187 26.8565 49.33 26.5045C49.6847 26.5045 50.0395 26.506 50.3957 26.5075L50.4001 26.5075C49.9287 27.2691 49.4604 28.0328 48.9922 28.7964C48.1793 30.122 47.3665 31.4477 46.5369 32.7632C46.3122 32.7602 46.0876 32.7586 45.8629 32.7569C45.7506 32.7561 45.6384 32.7553 45.5261 32.7543C45.6787 32.512 45.8331 32.2707 45.9874 32.0294C46.2849 31.5642 46.5825 31.099 46.8678 30.626C46.6056 29.6963 46.3599 28.761 46.1143 27.8263Z" fill="white"/>
</g>
</g>
</svg>
