<svg width="56" height="40" viewBox="0 0 56 40" fill="none" xmlns="http://www.w3.org/2000/svg">
<g id="VISA">
<rect id="Background" width="56" height="40" rx="4" fill="#0742A6"/>
<g id="logo">
<path id="polygon9" fill-rule="evenodd" clip-rule="evenodd" d="M25.6179 25.3952H22.7861L24.5573 14.7295H27.3889L25.6179 25.3952Z" fill="white"/>
<path id="path11" fill-rule="evenodd" clip-rule="evenodd" d="M35.8834 14.9902C35.3249 14.7744 34.439 14.5361 33.3435 14.5361C30.5471 14.5361 28.5779 15.9884 28.5658 18.0647C28.5426 19.5966 29.9757 20.4475 31.0476 20.9583C32.1431 21.4802 32.5156 21.8209 32.5156 22.2861C32.5044 23.0006 31.6303 23.33 30.815 23.33C29.6844 23.33 29.0786 23.1602 28.1581 22.7627L27.7852 22.5923L27.3889 24.9865C28.0531 25.2811 29.2767 25.5426 30.5471 25.5541C33.5184 25.5541 35.4528 24.1243 35.4757 21.9117C35.487 20.6975 34.7302 19.7672 33.0987 19.007C32.1083 18.519 31.5018 18.1899 31.5018 17.6906C31.5134 17.2366 32.0148 16.7717 33.1328 16.7717C34.0534 16.7489 34.7298 16.9644 35.2422 17.1801L35.4983 17.2933L35.8834 14.9902Z" fill="white"/>
<path id="path13" fill-rule="evenodd" clip-rule="evenodd" d="M40.9521 14.7295H43.1425L45.427 25.395H42.8051C42.8051 25.395 42.5485 24.1696 42.4672 23.7951H38.8315C38.7263 24.0786 38.2371 25.395 38.2371 25.395H35.2659L39.4721 15.6144C39.7635 14.9222 40.2767 14.7295 40.9521 14.7295ZM40.7776 18.6325C40.7776 18.6325 39.8803 21.004 39.6471 21.6167H42.0008C41.8843 21.0835 41.3481 18.5304 41.3481 18.5304L41.1502 17.6114C41.0669 17.8481 40.9463 18.1734 40.865 18.3929C40.8099 18.5417 40.7729 18.6417 40.7776 18.6325Z" fill="white"/>
<path id="path15" fill-rule="evenodd" clip-rule="evenodd" d="M20.421 14.7295L17.6478 22.0025L17.3448 20.5274C16.8321 18.8254 15.2241 16.9762 13.4297 16.0567L15.9699 25.3839H18.9644L23.4154 14.7295H20.421V14.7295Z" fill="white"/>
<path id="path17" fill-rule="evenodd" clip-rule="evenodd" d="M15.0726 14.7295H10.5166L10.47 14.945C14.024 15.8301 16.3777 17.9636 17.3447 20.5279L16.3543 15.626C16.1912 14.9448 15.6901 14.752 15.0726 14.7295Z" fill="white"/>
</g>
</g>
</svg>
